<svg width="1280" height="720" viewBox="0 0 1280 720" fill="none" xmlns="http://www.w3.org/2000/svg">
<rect width="1280" height="720" fill="url(#paint0_linear_1_2)"/>
<path d="M208.588 -6.10352e-05L208.588 720H0L0 -6.10352e-05H208.588Z" fill="url(#paint1_linear_1_2)"/>
<path d="M229 700V20H1252V700H229Z" fill="black"/>
<rect x="239.5" y="280.5" width="562" height="199" rx="7.5" stroke="#554D55"/>
<rect x="239.5" y="490.5" width="562" height="199" rx="7.5" stroke="#554D55"/>
<rect x="239" y="30" width="241.5" height="240" rx="8" fill="url(#paint2_linear_1_2)"/>
<rect x="490.5" y="30.5" width="310.5" height="239" rx="7.5" stroke="#554D55"/>
<rect x="812.5" y="30.5" width="429" height="294" rx="7.5" stroke="#554D55"/>
<rect x="812.5" y="335.5" width="429" height="354" rx="7.5" stroke="#554D55"/>
<path d="M50.1602 48H44.7738V30.5455H50.3988C52.092 30.5455 53.5408 30.8949 54.7454 31.5938C55.9499 32.2869 56.8732 33.2841 57.5153 34.5852C58.1573 35.8807 58.4783 37.4318 58.4783 39.2386C58.4783 41.0568 58.1545 42.6222 57.5067 43.9347C56.859 45.2415 55.9158 46.2472 54.6772 46.9517C53.4386 47.6506 51.9329 48 50.1602 48ZM46.8874 46.125H50.0238C51.467 46.125 52.663 45.8466 53.6119 45.2898C54.5607 44.733 55.2681 43.9403 55.734 42.9119C56.1999 41.8835 56.4329 40.6591 56.4329 39.2386C56.4329 37.8295 56.2028 36.6165 55.7425 35.5994C55.2823 34.5767 54.5948 33.7926 53.68 33.2472C52.7653 32.696 51.6261 32.4205 50.2624 32.4205H46.8874V46.125ZM65.6033 48.3068C64.7738 48.3068 64.021 48.1506 63.3448 47.8381C62.6687 47.5199 62.1317 47.0625 61.734 46.4659C61.3363 45.8636 61.1374 45.1364 61.1374 44.2841C61.1374 43.5341 61.2852 42.9261 61.5806 42.4602C61.8761 41.9886 62.271 41.6193 62.7653 41.3523C63.2596 41.0852 63.805 40.8864 64.4016 40.7557C65.0039 40.6193 65.609 40.5114 66.217 40.4318C67.0124 40.3295 67.6573 40.2528 68.1516 40.2017C68.6516 40.1449 69.0153 40.0511 69.2425 39.9205C69.4755 39.7898 69.592 39.5625 69.592 39.2386V39.1705C69.592 38.3295 69.3619 37.6761 68.9016 37.2102C68.4471 36.7443 67.7567 36.5114 66.8306 36.5114C65.8704 36.5114 65.1175 36.7216 64.5721 37.142C64.0266 37.5625 63.6431 38.0114 63.4215 38.4886L61.5124 37.8068C61.8533 37.0114 62.3079 36.392 62.8761 35.9489C63.4499 35.5 64.0749 35.1875 64.7511 35.0114C65.4329 34.8295 66.1033 34.7386 66.7624 34.7386C67.1829 34.7386 67.6658 34.7898 68.2113 34.892C68.7624 34.9886 69.2937 35.1903 69.805 35.4972C70.3221 35.804 70.7511 36.267 71.092 36.8864C71.4329 37.5057 71.6033 38.3352 71.6033 39.375V48H69.592V46.2273H69.4897C69.3533 46.5114 69.1261 46.8153 68.8079 47.1392C68.4897 47.4631 68.0664 47.7386 67.538 47.9659C67.0096 48.1932 66.3647 48.3068 65.6033 48.3068ZM65.9102 46.5C66.7056 46.5 67.3761 46.3438 67.9215 46.0312C68.4727 45.7188 68.8874 45.3153 69.1658 44.821C69.4499 44.3267 69.592 43.8068 69.592 43.2614V41.4205C69.5067 41.5227 69.3192 41.6165 69.0295 41.7017C68.7454 41.7812 68.4158 41.8523 68.0408 41.9148C67.6715 41.9716 67.3107 42.0227 66.9585 42.0682C66.6119 42.108 66.3306 42.142 66.1147 42.1705C65.592 42.2386 65.1033 42.3494 64.6488 42.5028C64.1999 42.6506 63.8363 42.875 63.5579 43.1761C63.2852 43.4716 63.1488 43.875 63.1488 44.3864C63.1488 45.0852 63.4073 45.6136 63.9244 45.9716C64.4471 46.3239 65.109 46.5 65.9102 46.5ZM84.5472 37.8409L82.7404 38.3523C82.6268 38.0511 82.4592 37.7585 82.2376 37.4744C82.0217 37.1847 81.7262 36.946 81.3512 36.7585C80.9762 36.571 80.4961 36.4773 79.9109 36.4773C79.1097 36.4773 78.4421 36.6619 77.908 37.0312C77.3796 37.3949 77.1154 37.858 77.1154 38.4205C77.1154 38.9205 77.2972 39.3153 77.6609 39.6051C78.0245 39.8949 78.5927 40.1364 79.3654 40.3295L81.3086 40.8068C82.479 41.0909 83.3512 41.5256 83.9251 42.1108C84.4989 42.6903 84.7859 43.4375 84.7859 44.3523C84.7859 45.1023 84.57 45.7727 84.1381 46.3636C83.712 46.9545 83.1154 47.4205 82.3484 47.7614C81.5813 48.1023 80.6893 48.2727 79.6722 48.2727C78.337 48.2727 77.2319 47.983 76.3569 47.4034C75.4819 46.8239 74.9279 45.9773 74.695 44.8636L76.604 44.3864C76.7859 45.0909 77.1296 45.6193 77.6353 45.9716C78.1467 46.3239 78.8143 46.5 79.6381 46.5C80.5756 46.5 81.32 46.3011 81.8711 45.9034C82.4279 45.5 82.7063 45.017 82.7063 44.4545C82.7063 44 82.5472 43.6193 82.229 43.3125C81.9109 43 81.4222 42.767 80.7631 42.6136L78.5813 42.1023C77.3825 41.8182 76.5018 41.3778 75.9393 40.7812C75.3825 40.179 75.104 39.4261 75.104 38.5227C75.104 37.7841 75.3114 37.1307 75.7262 36.5625C76.1467 35.9943 76.7177 35.5483 77.4393 35.2244C78.1665 34.9006 78.9904 34.7386 79.9109 34.7386C81.2063 34.7386 82.2234 35.0227 82.962 35.5909C83.7063 36.1591 84.2347 36.9091 84.5472 37.8409ZM89.8249 40.125V48H87.8136V30.5455H89.8249V36.9545H89.9954C90.3022 36.2784 90.7624 35.7415 91.3761 35.3438C91.9954 34.9403 92.8192 34.7386 93.8477 34.7386C94.7397 34.7386 95.521 34.9176 96.1914 35.2756C96.8619 35.6278 97.3817 36.1705 97.7511 36.9034C98.1261 37.6307 98.3136 38.5568 98.3136 39.6818V48H96.3022V39.8182C96.3022 38.7784 96.0323 37.9744 95.4925 37.4062C94.9585 36.8324 94.217 36.5455 93.2681 36.5455C92.609 36.5455 92.0181 36.6847 91.4954 36.9631C90.9783 37.2415 90.5692 37.6477 90.2681 38.1818C89.9727 38.7159 89.8249 39.3636 89.8249 40.125ZM102.266 48V30.5455H104.277V36.9886H104.448C104.596 36.7614 104.8 36.4716 105.061 36.1193C105.328 35.7614 105.709 35.4432 106.203 35.1648C106.703 34.8807 107.38 34.7386 108.232 34.7386C109.334 34.7386 110.306 35.0142 111.147 35.5653C111.988 36.1165 112.644 36.8977 113.115 37.9091C113.587 38.9205 113.823 40.1136 113.823 41.4886C113.823 42.875 113.587 44.0767 113.115 45.0938C112.644 46.1051 111.99 46.8892 111.155 47.446C110.32 47.9972 109.357 48.2727 108.266 48.2727C107.425 48.2727 106.752 48.1335 106.246 47.8551C105.74 47.571 105.351 47.25 105.078 46.892C104.806 46.5284 104.596 46.2273 104.448 45.9886H104.209V48H102.266ZM104.243 41.4545C104.243 42.4432 104.388 43.3153 104.678 44.071C104.968 44.821 105.391 45.4091 105.948 45.8352C106.505 46.2557 107.186 46.4659 107.993 46.4659C108.834 46.4659 109.536 46.2443 110.098 45.8011C110.667 45.3523 111.093 44.75 111.377 43.9943C111.667 43.233 111.811 42.3864 111.811 41.4545C111.811 40.5341 111.669 39.7045 111.385 38.9659C111.107 38.2216 110.684 37.6335 110.115 37.2017C109.553 36.7642 108.846 36.5455 107.993 36.5455C107.175 36.5455 106.488 36.7528 105.931 37.1676C105.374 37.5767 104.953 38.1506 104.669 38.8892C104.385 39.6222 104.243 40.4773 104.243 41.4545ZM122.218 48.2727C121.036 48.2727 119.999 47.9915 119.107 47.429C118.221 46.8665 117.527 46.0795 117.027 45.0682C116.533 44.0568 116.286 42.875 116.286 41.5227C116.286 40.1591 116.533 38.9687 117.027 37.9517C117.527 36.9347 118.221 36.1449 119.107 35.5824C119.999 35.0199 121.036 34.7386 122.218 34.7386C123.4 34.7386 124.434 35.0199 125.32 35.5824C126.212 36.1449 126.905 36.9347 127.4 37.9517C127.9 38.9687 128.15 40.1591 128.15 41.5227C128.15 42.875 127.9 44.0568 127.4 45.0682C126.905 46.0795 126.212 46.8665 125.32 47.429C124.434 47.9915 123.4 48.2727 122.218 48.2727ZM122.218 46.4659C123.115 46.4659 123.854 46.2358 124.434 45.7756C125.013 45.3153 125.442 44.7102 125.721 43.9602C125.999 43.2102 126.138 42.3977 126.138 41.5227C126.138 40.6477 125.999 39.8324 125.721 39.0767C125.442 38.321 125.013 37.7102 124.434 37.2443C123.854 36.7784 123.115 36.5455 122.218 36.5455C121.32 36.5455 120.581 36.7784 120.002 37.2443C119.422 37.7102 118.993 38.321 118.715 39.0767C118.436 39.8324 118.297 40.6477 118.297 41.5227C118.297 42.3977 118.436 43.2102 118.715 43.9602C118.993 44.7102 119.422 45.3153 120.002 45.7756C120.581 46.2358 121.32 46.4659 122.218 46.4659ZM135.072 48.3068C134.243 48.3068 133.49 48.1506 132.814 47.8381C132.137 47.5199 131.6 47.0625 131.203 46.4659C130.805 45.8636 130.606 45.1364 130.606 44.2841C130.606 43.5341 130.754 42.9261 131.049 42.4602C131.345 41.9886 131.74 41.6193 132.234 41.3523C132.728 41.0852 133.274 40.8864 133.87 40.7557C134.473 40.6193 135.078 40.5114 135.686 40.4318C136.481 40.3295 137.126 40.2528 137.62 40.2017C138.12 40.1449 138.484 40.0511 138.711 39.9205C138.944 39.7898 139.061 39.5625 139.061 39.2386V39.1705C139.061 38.3295 138.831 37.6761 138.37 37.2102C137.916 36.7443 137.225 36.5114 136.299 36.5114C135.339 36.5114 134.586 36.7216 134.041 37.142C133.495 37.5625 133.112 38.0114 132.89 38.4886L130.981 37.8068C131.322 37.0114 131.777 36.392 132.345 35.9489C132.919 35.5 133.544 35.1875 134.22 35.0114C134.902 34.8295 135.572 34.7386 136.231 34.7386C136.652 34.7386 137.135 34.7898 137.68 34.892C138.231 34.9886 138.762 35.1903 139.274 35.4972C139.791 35.804 140.22 36.267 140.561 36.8864C140.902 37.5057 141.072 38.3352 141.072 39.375V48H139.061V46.2273H138.958C138.822 46.5114 138.595 46.8153 138.277 47.1392C137.958 47.4631 137.535 47.7386 137.007 47.9659C136.478 48.1932 135.833 48.3068 135.072 48.3068ZM135.379 46.5C136.174 46.5 136.845 46.3438 137.39 46.0312C137.941 45.7188 138.356 45.3153 138.635 44.821C138.919 44.3267 139.061 43.8068 139.061 43.2614V41.4205C138.975 41.5227 138.788 41.6165 138.498 41.7017C138.214 41.7812 137.885 41.8523 137.51 41.9148C137.14 41.9716 136.779 42.0227 136.427 42.0682C136.081 42.108 135.799 42.142 135.583 42.1705C135.061 42.2386 134.572 42.3494 134.118 42.5028C133.669 42.6506 133.305 42.875 133.027 43.1761C132.754 43.4716 132.618 43.875 132.618 44.3864C132.618 45.0852 132.876 45.6136 133.393 45.9716C133.916 46.3239 134.578 46.5 135.379 46.5ZM144.743 48V34.9091H146.686V36.8864H146.823C147.061 36.2386 147.493 35.7131 148.118 35.3097C148.743 34.9062 149.448 34.7045 150.232 34.7045C150.38 34.7045 150.564 34.7074 150.786 34.7131C151.007 34.7187 151.175 34.7273 151.289 34.7386V36.7841C151.221 36.767 151.064 36.7415 150.82 36.7074C150.581 36.6676 150.328 36.6477 150.061 36.6477C149.425 36.6477 148.857 36.7812 148.357 37.0483C147.863 37.3097 147.471 37.6733 147.181 38.1392C146.897 38.5994 146.755 39.125 146.755 39.7159V48H144.743ZM158.218 48.2727C157.127 48.2727 156.164 47.9972 155.328 47.446C154.493 46.8892 153.84 46.1051 153.368 45.0938C152.897 44.0767 152.661 42.875 152.661 41.4886C152.661 40.1136 152.897 38.9205 153.368 37.9091C153.84 36.8977 154.496 36.1165 155.337 35.5653C156.178 35.0142 157.15 34.7386 158.252 34.7386C159.104 34.7386 159.777 34.8807 160.272 35.1648C160.772 35.4432 161.152 35.7614 161.414 36.1193C161.681 36.4716 161.888 36.7614 162.036 36.9886H162.206V30.5455H164.218V48H162.275V45.9886H162.036C161.888 46.2273 161.678 46.5284 161.405 46.892C161.132 47.25 160.743 47.571 160.238 47.8551C159.732 48.1335 159.059 48.2727 158.218 48.2727ZM158.49 46.4659C159.297 46.4659 159.979 46.2557 160.536 45.8352C161.093 45.4091 161.516 44.821 161.806 44.071C162.096 43.3153 162.24 42.4432 162.24 41.4545C162.24 40.4773 162.098 39.6222 161.814 38.8892C161.53 38.1506 161.11 37.5767 160.553 37.1676C159.996 36.7528 159.309 36.5455 158.49 36.5455C157.638 36.5455 156.928 36.7642 156.36 37.2017C155.797 37.6335 155.374 38.2216 155.09 38.9659C154.811 39.7045 154.672 40.5341 154.672 41.4545C154.672 42.3864 154.814 43.233 155.098 43.9943C155.388 44.75 155.814 45.3523 156.377 45.8011C156.945 46.2443 157.65 46.4659 158.49 46.4659ZM79.6541 79.8182C79.4496 78.0909 78.62 76.75 77.1655 75.7955C75.7109 74.8409 73.9268 74.3636 71.8132 74.3636C70.2678 74.3636 68.9155 74.6136 67.7564 75.1136C66.6087 75.6136 65.7109 76.3011 65.0632 77.1761C64.4268 78.0511 64.1087 79.0455 64.1087 80.1591C64.1087 81.0909 64.3303 81.892 64.7734 82.5625C65.228 83.2216 65.8075 83.7727 66.5121 84.2159C67.2166 84.6477 67.9553 85.0057 68.728 85.2898C69.5007 85.5625 70.2109 85.7841 70.8587 85.9545L74.4041 86.9091C75.3132 87.1477 76.3246 87.4773 77.4382 87.8977C78.5632 88.3182 79.6371 88.892 80.6598 89.6193C81.6939 90.3352 82.5462 91.2557 83.2166 92.3807C83.8871 93.5057 84.2223 94.8864 84.2223 96.5227C84.2223 98.4091 83.728 100.114 82.7393 101.636C81.7621 103.159 80.3303 104.369 78.4439 105.267C76.5689 106.165 74.2905 106.614 71.6087 106.614C69.1087 106.614 66.9439 106.21 65.1143 105.403C63.2962 104.597 61.8643 103.472 60.8189 102.028C59.7848 100.585 59.1996 98.9091 59.0632 97H63.4268C63.5405 98.3182 63.9837 99.4091 64.7564 100.273C65.5405 101.125 66.5291 101.761 67.7223 102.182C68.9268 102.591 70.2223 102.795 71.6087 102.795C73.2223 102.795 74.6712 102.534 75.9553 102.011C77.2393 101.477 78.2564 100.739 79.0064 99.7955C79.7564 98.8409 80.1314 97.7273 80.1314 96.4545C80.1314 95.2955 79.8075 94.3523 79.1598 93.625C78.5121 92.8977 77.6598 92.3068 76.603 91.8523C75.5462 91.3977 74.4041 91 73.1768 90.6591L68.8814 89.4318C66.1541 88.6477 63.995 87.5284 62.4041 86.0739C60.8132 84.6193 60.0178 82.7159 60.0178 80.3636C60.0178 78.4091 60.5462 76.7045 61.603 75.25C62.6712 73.7841 64.103 72.6477 65.8984 71.8409C67.7053 71.0227 69.7223 70.6136 71.9496 70.6136C74.1996 70.6136 76.1996 71.017 77.9496 71.8239C79.6996 72.6193 81.0859 73.7102 82.1087 75.0966C83.1428 76.483 83.6882 78.0568 83.745 79.8182H79.6541ZM92.6044 106H88.1726L100.991 71.0909H105.354L118.173 106H113.741L103.309 76.6136H103.036L92.6044 106ZM94.2408 92.3636H112.104V96.1136H94.2408V92.3636ZM150.06 82H145.833C145.583 80.7841 145.146 79.7159 144.521 78.7955C143.907 77.875 143.157 77.1023 142.271 76.4773C141.396 75.8409 140.424 75.3636 139.356 75.0455C138.288 74.7273 137.174 74.5682 136.015 74.5682C133.901 74.5682 131.987 75.1023 130.271 76.1705C128.566 77.2386 127.208 78.8125 126.197 80.892C125.197 82.9716 124.697 85.5227 124.697 88.5455C124.697 91.5682 125.197 94.1193 126.197 96.1989C127.208 98.2784 128.566 99.8523 130.271 100.92C131.987 101.989 133.901 102.523 136.015 102.523C137.174 102.523 138.288 102.364 139.356 102.045C140.424 101.727 141.396 101.256 142.271 100.631C143.157 99.9943 143.907 99.2159 144.521 98.2955C145.146 97.3636 145.583 96.2955 145.833 95.0909H150.06C149.742 96.875 149.163 98.4716 148.322 99.8807C147.481 101.29 146.435 102.489 145.185 103.477C143.935 104.455 142.532 105.199 140.975 105.71C139.43 106.222 137.776 106.477 136.015 106.477C133.038 106.477 130.39 105.75 128.072 104.295C125.754 102.841 123.93 100.773 122.6 98.0909C121.271 95.4091 120.606 92.2273 120.606 88.5455C120.606 84.8636 121.271 81.6818 122.6 79C123.93 76.3182 125.754 74.25 128.072 72.7955C130.39 71.3409 133.038 70.6136 136.015 70.6136C137.776 70.6136 139.43 70.8693 140.975 71.3807C142.532 71.892 143.935 72.642 145.185 73.6307C146.435 74.608 147.481 75.8011 148.322 77.2102C149.163 78.608 149.742 80.2045 150.06 82Z" fill="white"/>
<path d="M146 198.25C148.187 192.938 149.375 187.25 149.375 181C149.375 176.5 148.687 172.188 147.5 168.188C143.437 169.125 139.188 169.625 134.75 169.625C125.662 169.635 116.705 167.46 108.635 163.283C100.564 159.106 93.6152 153.05 88.375 145.625C82.7747 159.192 72.1982 170.104 58.8125 176.125C58.5625 177.688 58.5625 179.375 58.5625 181C58.5625 186.967 59.7378 192.875 62.0212 198.388C64.3047 203.901 67.6516 208.91 71.8708 213.129C80.392 221.65 91.9492 226.438 104 226.438C110.562 226.438 116.875 225 122.563 222.438C126.125 229.25 127.75 232.625 127.625 232.625C117.375 236.063 109.438 237.75 104 237.75C88.875 237.75 74.4375 231.813 63.8125 221.125C57.3441 214.687 52.5392 206.772 49.8125 198.063H41.5V169.625H48.3125C50.3765 159.578 55.1218 150.278 62.0449 142.71C68.968 135.142 77.8107 129.59 87.6346 126.642C97.4584 123.694 107.897 123.461 117.843 125.967C127.789 128.473 136.871 133.624 144.125 140.875C151.999 148.722 157.371 158.727 159.562 169.625H166.5V198.063H166.125L143.875 218.5L110.75 214.75V204.313H140.937L146 198.25ZM86.9375 179.563C88.8125 179.563 90.625 180.313 91.9375 181.688C93.2565 183.017 93.9967 184.814 93.9967 186.688C93.9967 188.561 93.2565 190.358 91.9375 191.688C90.625 193 88.8125 193.75 86.9375 193.75C83 193.75 79.8125 190.625 79.8125 186.688C79.8125 182.75 83 179.563 86.9375 179.563ZM121 179.563C124.938 179.563 128.063 182.75 128.063 186.688C128.063 190.625 124.938 193.75 121 193.75C117.063 193.75 113.875 190.625 113.875 186.688C113.875 184.798 114.626 182.986 115.962 181.649C117.298 180.313 119.11 179.563 121 179.563Z" fill="white"/>
<defs>
<linearGradient id="paint0_linear_1_2" x1="1280" y1="360" x2="203" y2="360" gradientUnits="userSpaceOnUse">
<stop stop-color="#120A52"/>
<stop offset="1" stop-color="#000028"/>
</linearGradient>
<linearGradient id="paint1_linear_1_2" x1="107" y1="3.99994" x2="104" y2="720" gradientUnits="userSpaceOnUse">
<stop stop-color="#120A52"/>
<stop offset="1" stop-color="#000028"/>
</linearGradient>
<linearGradient id="paint2_linear_1_2" x1="239" y1="150" x2="480" y2="150" gradientUnits="userSpaceOnUse">
<stop stop-color="#120A52"/>
<stop offset="1" stop-color="#000028"/>
</linearGradient>
</defs>
</svg>
