<svg width="1280" height="720" viewBox="0 0 1280 720" fill="none" xmlns="http://www.w3.org/2000/svg">
<rect width="1280" height="720" fill="url(#paint0_linear_1_2)"/>
<path d="M208.588 -6.10352e-05L208.588 720H0L0 -6.10352e-05H208.588Z" fill="url(#paint1_linear_1_2)"/>
<path d="M229 700V20H1252V700H229Z" fill="black"/>
<rect x="239.5" y="280.5" width="562" height="199" rx="7.5" stroke="#554D55"/>
<rect x="239.5" y="490.5" width="562" height="199" rx="7.5" stroke="#554D55"/>
<rect x="239" y="30" width="241.5" height="240" rx="8" fill="url(#paint2_linear_1_2)"/>
<rect x="490.5" y="30.5" width="310.5" height="239" rx="7.5" stroke="#554D55"/>
<rect x="812.5" y="30.5" width="429" height="294" rx="7.5" stroke="#554D55"/>
<rect x="812.5" y="335.5" width="429" height="354" rx="7.5" stroke="#554D55"/>
<path d="M50.1602 48H44.7738V30.5455H50.3988C52.092 30.5455 53.5408 30.8949 54.7454 31.5938C55.9499 32.2869 56.8732 33.2841 57.5153 34.5852C58.1573 35.8807 58.4783 37.4318 58.4783 39.2386C58.4783 41.0568 58.1545 42.6222 57.5067 43.9347C56.859 45.2415 55.9158 46.2472 54.6772 46.9517C53.4386 47.6506 51.9329 48 50.1602 48ZM46.8874 46.125H50.0238C51.467 46.125 52.663 45.8466 53.6119 45.2898C54.5607 44.733 55.2681 43.9403 55.734 42.9119C56.1999 41.8835 56.4329 40.6591 56.4329 39.2386C56.4329 37.8295 56.2028 36.6165 55.7425 35.5994C55.2823 34.5767 54.5948 33.7926 53.68 33.2472C52.7653 32.696 51.6261 32.4205 50.2624 32.4205H46.8874V46.125ZM65.6033 48.3068C64.7738 48.3068 64.021 48.1506 63.3448 47.8381C62.6687 47.5199 62.1317 47.0625 61.734 46.4659C61.3363 45.8636 61.1374 45.1364 61.1374 44.2841C61.1374 43.5341 61.2852 42.9261 61.5806 42.4602C61.8761 41.9886 62.271 41.6193 62.7653 41.3523C63.2596 41.0852 63.805 40.8864 64.4016 40.7557C65.0039 40.6193 65.609 40.5114 66.217 40.4318C67.0124 40.3295 67.6573 40.2528 68.1516 40.2017C68.6516 40.1449 69.0153 40.0511 69.2425 39.9205C69.4755 39.7898 69.592 39.5625 69.592 39.2386V39.1705C69.592 38.3295 69.3619 37.6761 68.9016 37.2102C68.4471 36.7443 67.7567 36.5114 66.8306 36.5114C65.8704 36.5114 65.1175 36.7216 64.5721 37.142C64.0266 37.5625 63.6431 38.0114 63.4215 38.4886L61.5124 37.8068C61.8533 37.0114 62.3079 36.392 62.8761 35.9489C63.4499 35.5 64.0749 35.1875 64.7511 35.0114C65.4329 34.8295 66.1033 34.7386 66.7624 34.7386C67.1829 34.7386 67.6658 34.7898 68.2113 34.892C68.7624 34.9886 69.2937 35.1903 69.805 35.4972C70.3221 35.804 70.7511 36.267 71.092 36.8864C71.4329 37.5057 71.6033 38.3352 71.6033 39.375V48H69.592V46.2273H69.4897C69.3533 46.5114 69.1261 46.8153 68.8079 47.1392C68.4897 47.4631 68.0664 47.7386 67.538 47.9659C67.0096 48.1932 66.3647 48.3068 65.6033 48.3068ZM65.9102 46.5C66.7056 46.5 67.3761 46.3438 67.9215 46.0312C68.4727 45.7188 68.8874 45.3153 69.1658 44.821C69.4499 44.3267 69.592 43.8068 69.592 43.2614V41.4205C69.5067 41.5227 69.3192 41.6165 69.0295 41.7017C68.7454 41.7812 68.4158 41.8523 68.0408 41.9148C67.6715 41.9716 67.3107 42.0227 66.9585 42.0682C66.6119 42.108 66.3306 42.142 66.1147 42.1705C65.592 42.2386 65.1033 42.3494 64.6488 42.5028C64.1999 42.6506 63.8363 42.875 63.5579 43.1761C63.2852 43.4716 63.1488 43.875 63.1488 44.3864C63.1488 45.0852 63.4073 45.6136 63.9244 45.9716C64.4471 46.3239 65.109 46.5 65.9102 46.5ZM84.5472 37.8409L82.7404 38.3523C82.6268 38.0511 82.4592 37.7585 82.2376 37.4744C82.0217 37.1847 81.7262 36.946 81.3512 36.7585C80.9762 36.571 80.4961 36.4773 79.9109 36.4773C79.1097 36.4773 78.4421 36.6619 77.908 37.0312C77.3796 37.3949 77.1154 37.858 77.1154 38.4205C77.1154 38.9205 77.2972 39.3153 77.6609 39.6051C78.0245 39.8949 78.5927 40.1364 79.3654 40.3295L81.3086 40.8068C82.479 41.0909 83.3512 41.5256 83.9251 42.1108C84.4989 42.6903 84.7859 43.4375 84.7859 44.3523C84.7859 45.1023 84.57 45.7727 84.1381 46.3636C83.712 46.9545 83.1154 47.4205 82.3484 47.7614C81.5813 48.1023 80.6893 48.2727 79.6722 48.2727C78.337 48.2727 77.2319 47.983 76.3569 47.4034C75.4819 46.8239 74.9279 45.9773 74.695 44.8636L76.604 44.3864C76.7859 45.0909 77.1296 45.6193 77.6353 45.9716C78.1467 46.3239 78.8143 46.5 79.6381 46.5C80.5756 46.5 81.32 46.3011 81.8711 45.9034C82.4279 45.5 82.7063 45.017 82.7063 44.4545C82.7063 44 82.5472 43.6193 82.229 43.3125C81.9109 43 81.4222 42.767 80.7631 42.6136L78.5813 42.1023C77.3825 41.8182 76.5018 41.3778 75.9393 40.7812C75.3825 40.179 75.104 39.4261 75.104 38.5227C75.104 37.7841 75.3114 37.1307 75.7262 36.5625C76.1467 35.9943 76.7177 35.5483 77.4393 35.2244C78.1665 34.9006 78.9904 34.7386 79.9109 34.7386C81.2063 34.7386 82.2234 35.0227 82.962 35.5909C83.7063 36.1591 84.2347 36.9091 84.5472 37.8409ZM89.8249 40.125V48H87.8136V30.5455H89.8249V36.9545H89.9954C90.3022 36.2784 90.7624 35.7415 91.3761 35.3438C91.9954 34.9403 92.8192 34.7386 93.8477 34.7386C94.7397 34.7386 95.521 34.9176 96.1914 35.2756C96.8619 35.6278 97.3817 36.1705 97.7511 36.9034C98.1261 37.6307 98.3136 38.5568 98.3136 39.6818V48H96.3022V39.8182C96.3022 38.7784 96.0323 37.9744 95.4925 37.4062C94.9585 36.8324 94.217 36.5455 93.2681 36.5455C92.609 36.5455 92.0181 36.6847 91.4954 36.9631C90.9783 37.2415 90.5692 37.6477 90.2681 38.1818C89.9727 38.7159 89.8249 39.3636 89.8249 40.125ZM102.266 48V30.5455H104.277V36.9886H104.448C104.596 36.7614 104.8 36.4716 105.061 36.1193C105.328 35.7614 105.709 35.4432 106.203 35.1648C106.703 34.8807 107.38 34.7386 108.232 34.7386C109.334 34.7386 110.306 35.0142 111.147 35.5653C111.988 36.1165 112.644 36.8977 113.115 37.9091C113.587 38.9205 113.823 40.1136 113.823 41.4886C113.823 42.875 113.587 44.0767 113.115 45.0938C112.644 46.1051 111.99 46.8892 111.155 47.446C110.32 47.9972 109.357 48.2727 108.266 48.2727C107.425 48.2727 106.752 48.1335 106.246 47.8551C105.74 47.571 105.351 47.25 105.078 46.892C104.806 46.5284 104.596 46.2273 104.448 45.9886H104.209V48H102.266ZM104.243 41.4545C104.243 42.4432 104.388 43.3153 104.678 44.071C104.968 44.821 105.391 45.4091 105.948 45.8352C106.505 46.2557 107.186 46.4659 107.993 46.4659C108.834 46.4659 109.536 46.2443 110.098 45.8011C110.667 45.3523 111.093 44.75 111.377 43.9943C111.667 43.233 111.811 42.3864 111.811 41.4545C111.811 40.5341 111.669 39.7045 111.385 38.9659C111.107 38.2216 110.684 37.6335 110.115 37.2017C109.553 36.7642 108.846 36.5455 107.993 36.5455C107.175 36.5455 106.488 36.7528 105.931 37.1676C105.374 37.5767 104.953 38.1506 104.669 38.8892C104.385 39.6222 104.243 40.4773 104.243 41.4545ZM122.218 48.2727C121.036 48.2727 119.999 47.9915 119.107 47.429C118.221 46.8665 117.527 46.0795 117.027 45.0682C116.533 44.0568 116.286 42.875 116.286 41.5227C116.286 40.1591 116.533 38.9687 117.027 37.9517C117.527 36.9347 118.221 36.1449 119.107 35.5824C119.999 35.0199 121.036 34.7386 122.218 34.7386C123.4 34.7386 124.434 35.0199 125.32 35.5824C126.212 36.1449 126.905 36.9347 127.4 37.9517C127.9 38.9687 128.15 40.1591 128.15 41.5227C128.15 42.875 127.9 44.0568 127.4 45.0682C126.905 46.0795 126.212 46.8665 125.32 47.429C124.434 47.9915 123.4 48.2727 122.218 48.2727ZM122.218 46.4659C123.115 46.4659 123.854 46.2358 124.434 45.7756C125.013 45.3153 125.442 44.7102 125.721 43.9602C125.999 43.2102 126.138 42.3977 126.138 41.5227C126.138 40.6477 125.999 39.8324 125.721 39.0767C125.442 38.321 125.013 37.7102 124.434 37.2443C123.854 36.7784 123.115 36.5455 122.218 36.5455C121.32 36.5455 120.581 36.7784 120.002 37.2443C119.422 37.7102 118.993 38.321 118.715 39.0767C118.436 39.8324 118.297 40.6477 118.297 41.5227C118.297 42.3977 118.436 43.2102 118.715 43.9602C118.993 44.7102 119.422 45.3153 120.002 45.7756C120.581 46.2358 121.32 46.4659 122.218 46.4659ZM135.072 48.3068C134.243 48.3068 133.49 48.1506 132.814 47.8381C132.137 47.5199 131.6 47.0625 131.203 46.4659C130.805 45.8636 130.606 45.1364 130.606 44.2841C130.606 43.5341 130.754 42.9261 131.049 42.4602C131.345 41.9886 131.74 41.6193 132.234 41.3523C132.728 41.0852 133.274 40.8864 133.87 40.7557C134.473 40.6193 135.078 40.5114 135.686 40.4318C136.481 40.3295 137.126 40.2528 137.62 40.2017C138.12 40.1449 138.484 40.0511 138.711 39.9205C138.944 39.7898 139.061 39.5625 139.061 39.2386V39.1705C139.061 38.3295 138.831 37.6761 138.37 37.2102C137.916 36.7443 137.225 36.5114 136.299 36.5114C135.339 36.5114 134.586 36.7216 134.041 37.142C133.495 37.5625 133.112 38.0114 132.89 38.4886L130.981 37.8068C131.322 37.0114 131.777 36.392 132.345 35.9489C132.919 35.5 133.544 35.1875 134.22 35.0114C134.902 34.8295 135.572 34.7386 136.231 34.7386C136.652 34.7386 137.135 34.7898 137.68 34.892C138.231 34.9886 138.762 35.1903 139.274 35.4972C139.791 35.804 140.22 36.267 140.561 36.8864C140.902 37.5057 141.072 38.3352 141.072 39.375V48H139.061V46.2273H138.958C138.822 46.5114 138.595 46.8153 138.277 47.1392C137.958 47.4631 137.535 47.7386 137.007 47.9659C136.478 48.1932 135.833 48.3068 135.072 48.3068ZM135.379 46.5C136.174 46.5 136.845 46.3438 137.39 46.0312C137.941 45.7188 138.356 45.3153 138.635 44.821C138.919 44.3267 139.061 43.8068 139.061 43.2614V41.4205C138.975 41.5227 138.788 41.6165 138.498 41.7017C138.214 41.7812 137.885 41.8523 137.51 41.9148C137.14 41.9716 136.779 42.0227 136.427 42.0682C136.081 42.108 135.799 42.142 135.583 42.1705C135.061 42.2386 134.572 42.3494 134.118 42.5028C133.669 42.6506 133.305 42.875 133.027 43.1761C132.754 43.4716 132.618 43.875 132.618 44.3864C132.618 45.0852 132.876 45.6136 133.393 45.9716C133.916 46.3239 134.578 46.5 135.379 46.5ZM144.743 48V34.9091H146.686V36.8864H146.823C147.061 36.2386 147.493 35.7131 148.118 35.3097C148.743 34.9062 149.448 34.7045 150.232 34.7045C150.38 34.7045 150.564 34.7074 150.786 34.7131C151.007 34.7187 151.175 34.7273 151.289 34.7386V36.7841C151.221 36.767 151.064 36.7415 150.82 36.7074C150.581 36.6676 150.328 36.6477 150.061 36.6477C149.425 36.6477 148.857 36.7812 148.357 37.0483C147.863 37.3097 147.471 37.6733 147.181 38.1392C146.897 38.5994 146.755 39.125 146.755 39.7159V48H144.743ZM158.218 48.2727C157.127 48.2727 156.164 47.9972 155.328 47.446C154.493 46.8892 153.84 46.1051 153.368 45.0938C152.897 44.0767 152.661 42.875 152.661 41.4886C152.661 40.1136 152.897 38.9205 153.368 37.9091C153.84 36.8977 154.496 36.1165 155.337 35.5653C156.178 35.0142 157.15 34.7386 158.252 34.7386C159.104 34.7386 159.777 34.8807 160.272 35.1648C160.772 35.4432 161.152 35.7614 161.414 36.1193C161.681 36.4716 161.888 36.7614 162.036 36.9886H162.206V30.5455H164.218V48H162.275V45.9886H162.036C161.888 46.2273 161.678 46.5284 161.405 46.892C161.132 47.25 160.743 47.571 160.238 47.8551C159.732 48.1335 159.059 48.2727 158.218 48.2727ZM158.49 46.4659C159.297 46.4659 159.979 46.2557 160.536 45.8352C161.093 45.4091 161.516 44.821 161.806 44.071C162.096 43.3153 162.24 42.4432 162.24 41.4545C162.24 40.4773 162.098 39.6222 161.814 38.8892C161.53 38.1506 161.11 37.5767 160.553 37.1676C159.996 36.7528 159.309 36.5455 158.49 36.5455C157.638 36.5455 156.928 36.7642 156.36 37.2017C155.797 37.6335 155.374 38.2216 155.09 38.9659C154.811 39.7045 154.672 40.5341 154.672 41.4545C154.672 42.3864 154.814 43.233 155.098 43.9943C155.388 44.75 155.814 45.3523 156.377 45.8011C156.945 46.2443 157.65 46.4659 158.49 46.4659ZM79.6541 79.8182C79.4496 78.0909 78.62 76.75 77.1655 75.7955C75.7109 74.8409 73.9268 74.3636 71.8132 74.3636C70.2678 74.3636 68.9155 74.6136 67.7564 75.1136C66.6087 75.6136 65.7109 76.3011 65.0632 77.1761C64.4268 78.0511 64.1087 79.0455 64.1087 80.1591C64.1087 81.0909 64.3303 81.892 64.7734 82.5625C65.228 83.2216 65.8075 83.7727 66.5121 84.2159C67.2166 84.6477 67.9553 85.0057 68.728 85.2898C69.5007 85.5625 70.2109 85.7841 70.8587 85.9545L74.4041 86.9091C75.3132 87.1477 76.3246 87.4773 77.4382 87.8977C78.5632 88.3182 79.6371 88.892 80.6598 89.6193C81.6939 90.3352 82.5462 91.2557 83.2166 92.3807C83.8871 93.5057 84.2223 94.8864 84.2223 96.5227C84.2223 98.4091 83.728 100.114 82.7393 101.636C81.7621 103.159 80.3303 104.369 78.4439 105.267C76.5689 106.165 74.2905 106.614 71.6087 106.614C69.1087 106.614 66.9439 106.21 65.1143 105.403C63.2962 104.597 61.8643 103.472 60.8189 102.028C59.7848 100.585 59.1996 98.9091 59.0632 97H63.4268C63.5405 98.3182 63.9837 99.4091 64.7564 100.273C65.5405 101.125 66.5291 101.761 67.7223 102.182C68.9268 102.591 70.2223 102.795 71.6087 102.795C73.2223 102.795 74.6712 102.534 75.9553 102.011C77.2393 101.477 78.2564 100.739 79.0064 99.7955C79.7564 98.8409 80.1314 97.7273 80.1314 96.4545C80.1314 95.2955 79.8075 94.3523 79.1598 93.625C78.5121 92.8977 77.6598 92.3068 76.603 91.8523C75.5462 91.3977 74.4041 91 73.1768 90.6591L68.8814 89.4318C66.1541 88.6477 63.995 87.5284 62.4041 86.0739C60.8132 84.6193 60.0178 82.7159 60.0178 80.3636C60.0178 78.4091 60.5462 76.7045 61.603 75.25C62.6712 73.7841 64.103 72.6477 65.8984 71.8409C67.7053 71.0227 69.7223 70.6136 71.9496 70.6136C74.1996 70.6136 76.1996 71.017 77.9496 71.8239C79.6996 72.6193 81.0859 73.7102 82.1087 75.0966C83.1428 76.483 83.6882 78.0568 83.745 79.8182H79.6541ZM92.6044 106H88.1726L100.991 71.0909H105.354L118.173 106H113.741L103.309 76.6136H103.036L92.6044 106ZM94.2408 92.3636H112.104V96.1136H94.2408V92.3636ZM150.06 82H145.833C145.583 80.7841 145.146 79.7159 144.521 78.7955C143.907 77.875 143.157 77.1023 142.271 76.4773C141.396 75.8409 140.424 75.3636 139.356 75.0455C138.288 74.7273 137.174 74.5682 136.015 74.5682C133.901 74.5682 131.987 75.1023 130.271 76.1705C128.566 77.2386 127.208 78.8125 126.197 80.892C125.197 82.9716 124.697 85.5227 124.697 88.5455C124.697 91.5682 125.197 94.1193 126.197 96.1989C127.208 98.2784 128.566 99.8523 130.271 100.92C131.987 101.989 133.901 102.523 136.015 102.523C137.174 102.523 138.288 102.364 139.356 102.045C140.424 101.727 141.396 101.256 142.271 100.631C143.157 99.9943 143.907 99.2159 144.521 98.2955C145.146 97.3636 145.583 96.2955 145.833 95.0909H150.06C149.742 96.875 149.163 98.4716 148.322 99.8807C147.481 101.29 146.435 102.489 145.185 103.477C143.935 104.455 142.532 105.199 140.975 105.71C139.43 106.222 137.776 106.477 136.015 106.477C133.038 106.477 130.39 105.75 128.072 104.295C125.754 102.841 123.93 100.773 122.6 98.0909C121.271 95.4091 120.606 92.2273 120.606 88.5455C120.606 84.8636 121.271 81.6818 122.6 79C123.93 76.3182 125.754 74.25 128.072 72.7955C130.39 71.3409 133.038 70.6136 136.015 70.6136C137.776 70.6136 139.43 70.8693 140.975 71.3807C142.532 71.892 143.935 72.642 145.185 73.6307C146.435 74.608 147.481 75.8011 148.322 77.2102C149.163 78.608 149.742 80.2045 150.06 82Z" fill="white"/>
<path d="M1185.49 651.389C1194 636.295 1198.26 628.75 1205 628.75C1211.74 628.75 1216 636.295 1224.51 651.389L1225.57 653.268C1232.64 665.809 1236.18 672.08 1232.98 676.665C1229.79 681.25 1221.88 681.25 1206.06 681.25H1203.94C1188.12 681.25 1180.21 681.25 1177.02 676.665C1173.82 672.08 1177.36 665.809 1184.43 653.268L1185.49 651.389Z" stroke="white" stroke-width="1.5"/>
<path d="M1205 643.333V657.917" stroke="white" stroke-width="1.5" stroke-linecap="round"/>
<path d="M1205 669.583C1206.61 669.583 1207.92 668.277 1207.92 666.667C1207.92 665.056 1206.61 663.75 1205 663.75C1203.39 663.75 1202.08 665.056 1202.08 666.667C1202.08 668.277 1203.39 669.583 1205 669.583Z" fill="white"/>
<path d="M85.25 629.917V615.333C85.25 612.451 86.266 609.995 88.2979 607.965C90.3299 605.934 92.7861 604.918 95.6667 604.917H97.75V588.25C97.75 587.104 98.1583 586.124 98.975 585.308C99.7917 584.493 100.772 584.085 101.917 584.083H106.083C107.229 584.083 108.21 584.492 109.027 585.308C109.844 586.125 110.251 587.106 110.25 588.25V604.917H112.333C115.215 604.917 117.672 605.933 119.704 607.965C121.736 609.997 122.751 612.453 122.75 615.333V629.917H85.25ZM89.4167 625.75H93.5833V619.5C93.5833 618.91 93.7833 618.415 94.1833 618.017C94.5833 617.618 95.0778 617.418 95.6667 617.417C96.2556 617.415 96.7507 617.615 97.1521 618.017C97.5535 618.418 97.7528 618.912 97.75 619.5V625.75H101.917V619.5C101.917 618.91 102.117 618.415 102.517 618.017C102.917 617.618 103.411 617.418 104 617.417C104.589 617.415 105.084 617.615 105.485 618.017C105.887 618.418 106.086 618.912 106.083 619.5V625.75H110.25V619.5C110.25 618.91 110.45 618.415 110.85 618.017C111.25 617.618 111.744 617.418 112.333 617.417C112.922 617.415 113.417 617.615 113.819 618.017C114.22 618.418 114.419 618.912 114.417 619.5V625.75H118.583V615.333C118.583 613.597 117.976 612.122 116.76 610.906C115.545 609.691 114.069 609.083 112.333 609.083H95.6667C93.9306 609.083 92.4549 609.691 91.2396 610.906C90.0243 612.122 89.4167 613.597 89.4167 615.333V625.75ZM106.083 604.917V588.25H101.917V604.917H106.083Z" fill="white"/>
<path d="M146 198.25C148.187 192.938 149.375 187.25 149.375 181C149.375 176.5 148.687 172.188 147.5 168.188C143.437 169.125 139.188 169.625 134.75 169.625C125.662 169.635 116.705 167.46 108.635 163.283C100.564 159.106 93.6152 153.05 88.375 145.625C82.7747 159.192 72.1982 170.104 58.8125 176.125C58.5625 177.688 58.5625 179.375 58.5625 181C58.5625 186.967 59.7378 192.875 62.0212 198.388C64.3047 203.901 67.6516 208.91 71.8708 213.129C80.392 221.65 91.9492 226.438 104 226.438C110.562 226.438 116.875 225 122.562 222.438C126.125 229.25 127.75 232.625 127.625 232.625C117.375 236.063 109.438 237.75 104 237.75C88.875 237.75 74.4375 231.813 63.8125 221.125C57.3441 214.687 52.5392 206.772 49.8125 198.063H41.5V169.625H48.3125C50.3765 159.578 55.1218 150.278 62.0449 142.71C68.968 135.142 77.8107 129.59 87.6346 126.642C97.4584 123.694 107.897 123.461 117.843 125.967C127.789 128.473 136.871 133.624 144.125 140.875C151.999 148.722 157.371 158.727 159.562 169.625H166.5V198.063H166.125L143.875 218.5L110.75 214.75V204.313H140.938L146 198.25ZM86.9375 179.563C88.8125 179.563 90.625 180.313 91.9375 181.688C93.2565 183.017 93.9967 184.814 93.9967 186.688C93.9967 188.561 93.2565 190.358 91.9375 191.688C90.625 193 88.8125 193.75 86.9375 193.75C83 193.75 79.8125 190.625 79.8125 186.688C79.8125 182.75 83 179.563 86.9375 179.563ZM121 179.563C124.938 179.563 128.062 182.75 128.062 186.688C128.062 190.625 124.938 193.75 121 193.75C117.062 193.75 113.875 190.625 113.875 186.688C113.875 184.798 114.626 182.986 115.962 181.649C117.298 180.313 119.11 179.563 121 179.563Z" fill="white"/>
<path d="M67.1896 646V637.273H68.2464V645.062H72.3033V646H67.1896ZM73.8033 646V639.455H74.8089V646H73.8033ZM74.3146 638.364C74.1186 638.364 73.9496 638.297 73.8075 638.163C73.6683 638.03 73.5987 637.869 73.5987 637.682C73.5987 637.494 73.6683 637.334 73.8075 637.2C73.9496 637.067 74.1186 637 74.3146 637C74.5107 637 74.6783 637.067 74.8175 637.2C74.9595 637.334 75.0305 637.494 75.0305 637.682C75.0305 637.869 74.9595 638.03 74.8175 638.163C74.6783 638.297 74.5107 638.364 74.3146 638.364ZM76.6509 646V639.455H77.6225V640.477H77.7077C77.8441 640.128 78.0643 639.857 78.3683 639.663C78.6722 639.467 79.0373 639.369 79.4634 639.369C79.8952 639.369 80.2546 639.467 80.5415 639.663C80.8313 639.857 81.0572 640.128 81.2191 640.477H81.2873C81.4549 640.139 81.7063 639.871 82.0415 639.672C82.3768 639.47 82.7788 639.369 83.2475 639.369C83.8327 639.369 84.3114 639.553 84.6836 639.919C85.0558 640.283 85.2418 640.849 85.2418 641.619V646H84.2362V641.619C84.2362 641.136 84.104 640.791 83.8398 640.584C83.5756 640.376 83.2646 640.273 82.9066 640.273C82.4464 640.273 82.0898 640.412 81.837 640.69C81.5842 640.966 81.4577 641.315 81.4577 641.739V646H80.435V641.517C80.435 641.145 80.3143 640.845 80.0728 640.618C79.8313 640.388 79.5202 640.273 79.1396 640.273C78.8782 640.273 78.6339 640.342 78.4066 640.482C78.1822 640.621 78.0004 640.814 77.8612 641.061C77.7248 641.305 77.6566 641.588 77.6566 641.909V646H76.6509ZM87.0806 648.455V639.455H88.0522V640.494H88.1715C88.2454 640.381 88.3477 640.236 88.4783 640.06C88.6119 639.881 88.8022 639.722 89.0494 639.582C89.2994 639.44 89.6374 639.369 90.0636 639.369C90.6147 639.369 91.1005 639.507 91.521 639.783C91.9414 640.058 92.2695 640.449 92.5053 640.955C92.7411 641.46 92.859 642.057 92.859 642.744C92.859 643.438 92.7411 644.038 92.5053 644.547C92.2695 645.053 91.9428 645.445 91.5252 645.723C91.1076 645.999 90.6261 646.136 90.0806 646.136C89.6602 646.136 89.3235 646.067 89.0707 645.928C88.8178 645.786 88.6232 645.625 88.4869 645.446C88.3505 645.264 88.2454 645.114 88.1715 644.994H88.0863V648.455H87.0806ZM88.0692 642.727C88.0692 643.222 88.1417 643.658 88.2866 644.036C88.4315 644.411 88.6431 644.705 88.9215 644.918C89.1999 645.128 89.5408 645.233 89.9442 645.233C90.3647 645.233 90.7156 645.122 90.9968 644.901C91.2809 644.676 91.494 644.375 91.636 643.997C91.7809 643.616 91.8533 643.193 91.8533 642.727C91.8533 642.267 91.7823 641.852 91.6403 641.483C91.5011 641.111 91.2894 640.817 91.0053 640.601C90.7241 640.382 90.3704 640.273 89.9442 640.273C89.5352 640.273 89.1914 640.376 88.913 640.584C88.6346 640.788 88.4244 641.075 88.2823 641.445C88.1403 641.811 88.0692 642.239 88.0692 642.727ZM96.3192 646.153C95.9045 646.153 95.5281 646.075 95.19 645.919C94.8519 645.76 94.5835 645.531 94.3846 645.233C94.1857 644.932 94.0863 644.568 94.0863 644.142C94.0863 643.767 94.1602 643.463 94.3079 643.23C94.4556 642.994 94.6531 642.81 94.9002 642.676C95.1474 642.543 95.4201 642.443 95.7184 642.378C96.0195 642.31 96.3221 642.256 96.6261 642.216C97.0238 642.165 97.3462 642.126 97.5934 642.101C97.8434 642.072 98.0252 642.026 98.1388 641.96C98.2553 641.895 98.3136 641.781 98.3136 641.619V641.585C98.3136 641.165 98.1985 640.838 97.9684 640.605C97.7411 640.372 97.396 640.256 96.9329 640.256C96.4528 640.256 96.0763 640.361 95.8036 640.571C95.5309 640.781 95.3391 641.006 95.2283 641.244L94.2738 640.903C94.4442 640.506 94.6715 640.196 94.9556 639.974C95.2425 639.75 95.555 639.594 95.8931 639.506C96.234 639.415 96.5692 639.369 96.8988 639.369C97.109 639.369 97.3505 639.395 97.6232 639.446C97.8988 639.494 98.1644 639.595 98.4201 639.749C98.6786 639.902 98.8931 640.134 99.0636 640.443C99.234 640.753 99.3192 641.168 99.3192 641.688V646H98.3136V645.114H98.2624C98.1942 645.256 98.0806 645.408 97.9215 645.57C97.7624 645.732 97.5508 645.869 97.2866 645.983C97.0224 646.097 96.6999 646.153 96.3192 646.153ZM96.4727 645.25C96.8704 645.25 97.2056 645.172 97.4783 645.016C97.7539 644.859 97.9613 644.658 98.1005 644.411C98.2425 644.163 98.3136 643.903 98.3136 643.631V642.71C98.271 642.761 98.1772 642.808 98.0323 642.851C97.8903 642.891 97.7255 642.926 97.538 642.957C97.3533 642.986 97.1729 643.011 96.9968 643.034C96.8235 643.054 96.6829 643.071 96.5749 643.085C96.3136 643.119 96.0692 643.175 95.842 643.251C95.6175 643.325 95.4357 643.437 95.2965 643.588C95.1602 643.736 95.092 643.937 95.092 644.193C95.092 644.543 95.2212 644.807 95.4798 644.986C95.7411 645.162 96.0721 645.25 96.4727 645.25ZM101.155 646V639.455H102.126V640.443H102.195C102.314 640.119 102.53 639.857 102.842 639.655C103.155 639.453 103.507 639.352 103.899 639.352C103.973 639.352 104.065 639.354 104.176 639.357C104.287 639.359 104.371 639.364 104.428 639.369V640.392C104.393 640.384 104.315 640.371 104.193 640.354C104.074 640.334 103.947 640.324 103.814 640.324C103.496 640.324 103.212 640.391 102.962 640.524C102.714 640.655 102.518 640.837 102.374 641.07C102.232 641.3 102.161 641.562 102.161 641.858V646H101.155ZM109.131 646V637.273H114.364V638.21H110.188V641.159H113.972V642.097H110.188V646H109.131ZM116.038 646V639.455H117.043V646H116.038ZM116.549 638.364C116.353 638.364 116.184 638.297 116.042 638.163C115.903 638.03 115.833 637.869 115.833 637.682C115.833 637.494 115.903 637.334 116.042 637.2C116.184 637.067 116.353 637 116.549 637C116.745 637 116.913 637.067 117.052 637.2C117.194 637.334 117.265 637.494 117.265 637.682C117.265 637.869 117.194 638.03 117.052 638.163C116.913 638.297 116.745 638.364 116.549 638.364ZM119.891 637.273V646H118.885V637.273H119.891ZM124.58 639.455V640.307H121.188V639.455H124.58ZM122.176 637.886H123.182V644.125C123.182 644.409 123.223 644.622 123.305 644.764C123.391 644.903 123.499 644.997 123.629 645.045C123.763 645.091 123.903 645.114 124.051 645.114C124.162 645.114 124.253 645.108 124.324 645.097C124.395 645.082 124.452 645.071 124.494 645.062L124.699 645.966C124.631 645.991 124.536 646.017 124.413 646.043C124.291 646.071 124.136 646.085 123.949 646.085C123.665 646.085 123.386 646.024 123.114 645.902C122.844 645.78 122.619 645.594 122.44 645.344C122.264 645.094 122.176 644.778 122.176 644.398V637.886ZM126.092 646V639.455H127.064V640.443H127.132C127.251 640.119 127.467 639.857 127.78 639.655C128.092 639.453 128.445 639.352 128.837 639.352C128.911 639.352 129.003 639.354 129.114 639.357C129.224 639.359 129.308 639.364 129.365 639.369V640.392C129.331 640.384 129.253 640.371 129.131 640.354C129.011 640.334 128.885 640.324 128.751 640.324C128.433 640.324 128.149 640.391 127.899 640.524C127.652 640.655 127.456 640.837 127.311 641.07C127.169 641.3 127.098 641.562 127.098 641.858V646H126.092ZM133.017 646.136C132.426 646.136 131.908 645.996 131.462 645.714C131.018 645.433 130.672 645.04 130.422 644.534C130.175 644.028 130.051 643.437 130.051 642.761C130.051 642.08 130.175 641.484 130.422 640.976C130.672 640.467 131.018 640.072 131.462 639.791C131.908 639.51 132.426 639.369 133.017 639.369C133.608 639.369 134.125 639.51 134.568 639.791C135.014 640.072 135.361 640.467 135.608 640.976C135.858 641.484 135.983 642.08 135.983 642.761C135.983 643.437 135.858 644.028 135.608 644.534C135.361 645.04 135.014 645.433 134.568 645.714C134.125 645.996 133.608 646.136 133.017 646.136ZM133.017 645.233C133.466 645.233 133.835 645.118 134.125 644.888C134.415 644.658 134.629 644.355 134.768 643.98C134.908 643.605 134.977 643.199 134.977 642.761C134.977 642.324 134.908 641.916 134.768 641.538C134.629 641.161 134.415 640.855 134.125 640.622C133.835 640.389 133.466 640.273 133.017 640.273C132.568 640.273 132.199 640.389 131.909 640.622C131.619 640.855 131.405 641.161 131.266 641.538C131.126 641.916 131.057 642.324 131.057 642.761C131.057 643.199 131.126 643.605 131.266 643.98C131.405 644.355 131.619 644.658 131.909 644.888C132.199 645.118 132.568 645.233 133.017 645.233ZM142.154 640.92L141.251 641.176C141.194 641.026 141.11 640.879 141 640.737C140.892 640.592 140.744 640.473 140.556 640.379C140.369 640.286 140.129 640.239 139.836 640.239C139.436 640.239 139.102 640.331 138.835 640.516C138.571 640.697 138.439 640.929 138.439 641.21C138.439 641.46 138.529 641.658 138.711 641.803C138.893 641.947 139.177 642.068 139.564 642.165L140.535 642.403C141.12 642.545 141.556 642.763 141.843 643.055C142.13 643.345 142.274 643.719 142.274 644.176C142.274 644.551 142.166 644.886 141.95 645.182C141.737 645.477 141.439 645.71 141.055 645.881C140.672 646.051 140.225 646.136 139.717 646.136C139.049 646.136 138.497 645.991 138.059 645.702C137.622 645.412 137.345 644.989 137.228 644.432L138.183 644.193C138.274 644.545 138.446 644.81 138.699 644.986C138.954 645.162 139.288 645.25 139.7 645.25C140.169 645.25 140.541 645.151 140.816 644.952C141.095 644.75 141.234 644.509 141.234 644.227C141.234 644 141.154 643.81 140.995 643.656C140.836 643.5 140.592 643.384 140.262 643.307L139.172 643.051C138.572 642.909 138.132 642.689 137.85 642.391C137.572 642.089 137.433 641.713 137.433 641.261C137.433 640.892 137.537 640.565 137.744 640.281C137.954 639.997 138.24 639.774 138.6 639.612C138.964 639.45 139.376 639.369 139.836 639.369C140.484 639.369 140.993 639.511 141.362 639.795C141.734 640.08 141.998 640.455 142.154 640.92Z" fill="white"/>
<defs>
<linearGradient id="paint0_linear_1_2" x1="1280" y1="360" x2="203" y2="360" gradientUnits="userSpaceOnUse">
<stop stop-color="#120A52"/>
<stop offset="1" stop-color="#000028"/>
</linearGradient>
<linearGradient id="paint1_linear_1_2" x1="107" y1="3.99994" x2="104" y2="720" gradientUnits="userSpaceOnUse">
<stop stop-color="#120A52"/>
<stop offset="1" stop-color="#000028"/>
</linearGradient>
<linearGradient id="paint2_linear_1_2" x1="239" y1="150" x2="480" y2="150" gradientUnits="userSpaceOnUse">
<stop stop-color="#120A52"/>
<stop offset="1" stop-color="#000028"/>
</linearGradient>
</defs>
</svg>
