<svg width="1280" height="720" viewBox="0 0 1280 720" fill="none" xmlns="http://www.w3.org/2000/svg">
<rect width="1280" height="720" fill="url(#paint0_linear_1_2)"/>
<g filter="url(#filter0_d_1_2)">
<path d="M1230.29 115H540.045H50C38.9543 115 30 123.954 30 135V669.873C30 680.918 38.9543 689.873 50 689.873H1230.29C1241.34 689.873 1250.29 680.918 1250.29 669.873V135C1250.29 123.954 1241.34 115 1230.29 115Z" fill="url(#paint1_linear_1_2)"/>
</g>
<g filter="url(#filter1_d_1_2)">
<rect x="45" y="57" width="238" height="117" rx="12" fill="url(#paint2_linear_1_2)"/>
</g>
<g filter="url(#filter2_d_1_2)">
<rect x="297" y="57" width="238" height="117" rx="12" fill="url(#paint3_linear_1_2)"/>
</g>
<g filter="url(#filter3_d_1_2)">
<rect x="549" y="57" width="238" height="117" rx="12" fill="url(#paint4_linear_1_2)"/>
</g>
<g filter="url(#filter4_d_1_2)">
<rect x="802" y="130" width="433" height="545" rx="12" fill="white"/>
</g>
<g filter="url(#filter5_d_1_2)">
<rect x="45" y="189" width="742" height="200" rx="12" fill="white"/>
</g>
<g filter="url(#filter6_d_1_2)">
<rect x="45" y="396" width="364" height="279" rx="12" fill="white"/>
</g>
<g filter="url(#filter7_d_1_2)">
<rect x="423" y="396" width="364" height="279" rx="12" fill="white"/>
</g>
<path d="M70 98.6667C79.205 98.6667 86.6666 91.205 86.6666 82C86.6666 72.795 79.205 65.3333 70 65.3333C60.795 65.3333 53.3333 72.795 53.3333 82C53.3333 91.205 60.795 98.6667 70 98.6667Z" stroke="white" stroke-width="1.5" stroke-linecap="round" stroke-linejoin="round"/>
<path d="M75 76.1667C73.8583 75.025 71.8483 74.2317 70 74.1817M70 74.1817C67.8 74.1217 65.8333 75.1167 65.8333 77.8334C65.8333 82.8334 75 80.3334 75 85.3334C75 88.185 72.56 89.41 70 89.3184M70 74.1817V71.1667M65 87C66.0733 88.4334 68.0717 89.25 70 89.3184M70 89.3184V92.8334" stroke="white" stroke-width="1.5" stroke-linecap="round" stroke-linejoin="round"/>
<path d="M331.023 79.3567C332 78.38 332 76.81 332 73.6667C332 70.5233 332 68.9533 331.023 67.9767M331.023 79.3567C330.047 80.3333 328.477 80.3333 325.333 80.3333H318.667C315.523 80.3333 313.953 80.3333 312.977 79.3567M331.023 67.9767C330.047 67 328.477 67 325.333 67H318.667C315.523 67 313.953 67 312.977 67.9767M312.977 67.9767C312 68.9533 312 70.5233 312 73.6667C312 76.81 312 78.38 312.977 79.3567M323.667 73.6667C323.667 74.1087 323.491 74.5326 323.179 74.8452C322.866 75.1577 322.442 75.3333 322 75.3333C321.558 75.3333 321.134 75.1577 320.821 74.8452C320.509 74.5326 320.333 74.1087 320.333 73.6667C320.333 73.2246 320.509 72.8007 320.821 72.4882C321.134 72.1756 321.558 72 322 72C322.442 72 322.866 72.1756 323.179 72.4882C323.491 72.8007 323.667 73.2246 323.667 73.6667Z" stroke="white" stroke-width="1.5"/>
<path d="M332 72C330.674 72 329.402 71.4732 328.464 70.5355C327.527 69.5979 327 68.3261 327 67M332 75.3333C330.674 75.3333 329.402 75.8601 328.464 76.7978C327.527 77.7355 327 79.0073 327 80.3333M312 72C313.326 72 314.598 71.4732 315.536 70.5355C316.473 69.5979 317 68.3261 317 67M312 75.3333C313.326 75.3333 314.598 75.8601 315.536 76.7978C316.473 77.7355 317 79.0073 317 80.3333M310.333 95.98H314.1C315.783 95.98 317.488 96.1567 319.127 96.4933C322.052 97.0942 325.061 97.1609 328.01 96.69C329.457 96.4567 330.877 96.0983 332.163 95.4783C333.323 94.9167 334.745 94.1283 335.7 93.2433C336.653 92.36 337.647 90.915 338.35 89.785C338.957 88.815 338.663 87.6267 337.707 86.905C337.169 86.514 336.521 86.3033 335.857 86.3033C335.192 86.3033 334.544 86.514 334.007 86.905L330.995 89.18C329.828 90.0633 328.553 90.875 327.035 91.1167C326.852 91.145 326.66 91.1717 326.46 91.195M326.46 91.195C326.399 91.2021 326.338 91.2087 326.277 91.215M326.46 91.195C326.727 91.1229 326.971 90.9854 327.172 90.795C327.423 90.5777 327.628 90.3124 327.775 90.0145C327.922 89.7167 328.008 89.3925 328.027 89.061C328.047 88.7295 328 88.3974 327.889 88.0844C327.778 87.7713 327.606 87.4836 327.382 87.2383C327.164 86.9972 326.912 86.7909 326.632 86.6267C321.97 83.845 314.715 85.9633 310.333 89.0717M326.46 91.195C326.4 91.2081 326.338 91.2148 326.277 91.215M326.277 91.215C325.272 91.316 324.259 91.3182 323.253 91.2217" stroke="white" stroke-width="1.5" stroke-linecap="round"/>
<path d="M310.333 87.8333C310.333 86.4526 309.214 85.3333 307.833 85.3333C306.453 85.3333 305.333 86.4526 305.333 87.8333V96.1667C305.333 97.5474 306.453 98.6667 307.833 98.6667C309.214 98.6667 310.333 97.5474 310.333 96.1667V87.8333Z" stroke="white" stroke-width="1.5"/>
<path d="M582.333 92C583.217 92 584.065 92.3512 584.69 92.9763C585.315 93.6014 585.667 94.4493 585.667 95.3333C585.667 96.2174 585.315 97.0652 584.69 97.6904C584.065 98.3155 583.217 98.6667 582.333 98.6667C581.449 98.6667 580.601 98.3155 579.976 97.6904C579.351 97.0652 579 96.2174 579 95.3333C579 93.4833 580.483 92 582.333 92ZM555.667 65.3333H561.117L562.683 68.6667H587.333C587.775 68.6667 588.199 68.8423 588.512 69.1548C588.824 69.4674 589 69.8913 589 70.3333C589 70.6167 588.917 70.9 588.8 71.1667L582.833 81.95C582.267 82.9667 581.167 83.6667 579.917 83.6667H567.5L566 86.3833L565.95 86.5833C565.95 86.6938 565.994 86.7998 566.072 86.878C566.15 86.9561 566.256 87 566.367 87H585.667V90.3333H565.667C564.783 90.3333 563.935 89.9822 563.31 89.357C562.685 88.7319 562.333 87.8841 562.333 87C562.333 86.4167 562.483 85.8667 562.733 85.4L565 81.3167L559 68.6667H555.667V65.3333ZM565.667 92C566.551 92 567.399 92.3512 568.024 92.9763C568.649 93.6014 569 94.4493 569 95.3333C569 96.2174 568.649 97.0652 568.024 97.6904C567.399 98.3155 566.551 98.6667 565.667 98.6667C564.783 98.6667 563.935 98.3155 563.31 97.6904C562.685 97.0652 562.333 96.2174 562.333 95.3333C562.333 93.4833 563.817 92 565.667 92ZM580.667 80.3333L585.3 72H564.233L568.167 80.3333H580.667Z" fill="white"/>
<g clip-path="url(#clip0_1_2)">
<path d="M884.5 75.625C884.5 90.75 872.25 90.75 857 90.75C841.75 90.75 829.5 90.75 829.5 75.625C829.5 60.5 841.875 35.75 857 35.75C872.125 35.75 884.5 60.375 884.5 75.625Z" fill="#DBB471"/>
<path opacity="0.5" d="M884.5 75.625C884.5 70.5 883.125 64.25 880.625 58.25C881.125 62.125 880.125 69 868.25 71.625C851.375 75.25 860.125 80 853.5 80.625C847.875 81.125 832.875 78.875 829.875 70.375C829.625 72.25 829.375 74 829.375 75.75C829.5 90.75 841.875 90.75 857 90.75C872.125 90.75 884.5 90.75 884.5 75.625Z" fill="#89664C"/>
<path d="M864.375 68.375C863.875 65.875 861.75 65.125 859.5 65V61.5C860.125 61.75 860.875 62.125 861.375 62.5C862.375 63.125 863.375 61.5 862.375 60.875C861.5 60.375 860.5 59.875 859.5 59.5V55.375C859.5 54.125 857.625 54.125 857.625 55.375V59C856.625 58.875 855.625 58.875 854.625 59C854.5 58.125 854.25 57.25 854 56.375C853.75 55.125 851.875 55.625 852.25 56.875C852.5 57.75 852.625 58.625 852.875 59.5C852.75 59.5 852.75 59.5 852.625 59.625C850.125 60.625 848.5 63.125 850.375 65.5C851.25 66.625 852.375 67 853.625 67.25C853.75 68.875 853.75 70.5 853.75 72.125C852.875 71.625 852.125 70.875 851.5 70.25C850.625 69.375 849.375 70.75 850.125 71.625C851.25 72.875 852.5 73.75 853.75 74.375C853.75 75.75 853.875 77.125 854 78.5C854.125 79.75 856 79.75 855.875 78.5C855.75 77.25 855.625 76.125 855.625 74.875C856.375 75 857.125 75 857.875 75C858 76.25 858.125 77.5 858.25 78.875C858.375 80.125 860.25 80.125 860.125 78.875C860 77.5 859.875 76.125 859.75 74.625C862.5 73.625 865 71.5 864.375 68.375ZM857.625 60.875V65C857 65 856.5 65.125 856 65.125H855.375L855 60.625C855.875 60.625 856.75 60.75 857.625 60.875ZM853.125 64.875C852.625 64.75 852.125 64.375 851.625 64C850.5 62.875 852.125 61.875 853.125 61.375C853.25 62.625 853.375 63.75 853.5 65C853.375 65 853.25 65 853.125 64.875ZM857.25 72.875C856.625 73 856.125 72.875 855.625 72.75C855.5 70.875 855.5 69 855.5 67C856.25 67 857 66.875 857.75 66.875C857.75 68.875 857.875 70.75 857.875 72.75C857.625 72.875 857.5 72.875 857.25 72.875ZM861.375 71.5C860.875 71.875 860.25 72.125 859.75 72.375C859.625 70.5 859.625 68.75 859.625 66.875H860.25C862.625 67.375 863.25 70 861.375 71.5Z" fill="#89664C"/>
<path d="M859.5 85.75H856.625V90.75L868.25 97L894.5 88.875V84.5L884.875 78.875L859.5 85.75Z" fill="#699635"/>
<path d="M857 82.875C857 82.875 860 87.75 868.5 92C868.5 92 881.75 91.375 894.5 82.875C894.5 82.875 887.125 79.25 885 74.5C885 74.5 880 81.5 857 82.875Z" fill="#83BF4F"/>
<path d="M851.375 85.625L854.125 85.5L854.5 90.125L843.625 97L817.5 91.375L817.125 87.25L826 81.125L851.375 85.625Z" fill="#699635"/>
<path d="M853.5 82.75C853.5 82.75 850.875 87.625 843 92.25C843 92.25 830.125 92.625 817 85.75C817 85.75 824 81.75 825.625 77C825.625 77 831.125 83.25 853.5 82.75Z" fill="#83BF4F"/>
<path d="M847.25 84.125C847.25 84.125 846.875 85.125 848.625 85.25L844 89.125C844 89.125 841.25 88.875 840.625 90.75C840.625 90.75 829.375 89.5 822.125 86.25C822.125 86.25 823.625 85.125 821.75 84.375C821.75 84.375 823.875 82.875 824.375 81.5C824.375 81.5 826.375 81.75 827 80.25C827.25 80.125 834.75 84.625 847.25 84.125Z" stroke="#699635" stroke-miterlimit="10"/>
<path d="M828 85.875C829.312 85.875 830.375 85.1475 830.375 84.25C830.375 83.3525 829.312 82.625 828 82.625C826.688 82.625 825.625 83.3525 825.625 84.25C825.625 85.1475 826.688 85.875 828 85.875Z" fill="#699635"/>
<path d="M840.75 82.25C840.75 82.25 837.875 86 831.625 91.125L832 94.5L827.625 93.5L827.375 89.875C827.375 89.875 833.75 84 835.125 81.125C835 81.125 837.25 81.875 840.75 82.25ZM869.625 81.375C869.625 81.375 870.75 84.375 879.25 89.875V93.5L884.125 92V88.25C884.125 88.25 878.25 84.125 874.75 80L869.625 81.375Z" fill="#F9F3D9"/>
<path d="M862.5 77.375L859.75 77.25L859.5 82.375L870.625 89.5L896.75 82.375L896.875 77.875L887.75 71.5L862.5 77.375Z" fill="#699635"/>
<path d="M860.25 74.25C860.25 74.25 863 79.5 871.125 84.25C871.125 84.25 884.125 84.25 897 76.25C897 76.25 889.875 72.125 888.125 67C888.125 67 882.75 74 860.25 74.25Z" fill="#83BF4F"/>
<path d="M865.875 75.625C865.875 75.625 866.5 76.625 864.5 77L869.75 81.125C869.75 81.125 872.75 80.375 873.75 82.125C873.75 82.125 886.25 79.875 892 76.875C892 76.875 890.125 76 892 74.875C892 74.875 889.75 73 888.875 71.75C888.875 71.75 886.75 72.375 885.625 70.875C885.625 71 881.125 75 865.875 75.625Z" stroke="#699635" stroke-miterlimit="10"/>
<path d="M875.5 78.75C875 79.375 873.375 79.625 872 79.25C870.625 78.875 870 78 870.5 77.375C871 76.75 872.625 76.5 874 76.875C875.375 77.25 876 78 875.5 78.75Z" fill="#699635"/>
<path d="M873 73.25C873 73.25 876 77.25 882.375 82.625L882.25 86.375L886.625 85.125L886.75 81.125C886.75 81.125 880.25 74.875 878.625 71.875C878.75 71.875 876.625 72.75 873 73.25Z" fill="#F9F3D9"/>
<path d="M874.5 19.5C874.5 27.125 864.625 39.5 857 39.5C849.375 39.5 839.5 28.375 839.5 20.75C839.5 13.125 840.625 20.75 848.25 20.75C849.375 20.75 854.625 17 857 17C858.625 17 863.25 20.75 865.75 20.75C872.375 20.75 874.5 13.75 874.5 19.5Z" fill="#DBB471"/>
<path d="M854.75 33.625C854 34.125 850.375 33.75 849.25 34.625C847.75 35.75 849.875 38.375 848.375 40C845.375 43 843 46.375 843.75 48.25C845 51.5 847.375 42.25 849.5 45.75C851.625 49.25 851.25 43.375 854.5 46.375C857.75 49.375 855 41 858.125 44.625C861.25 48.25 861.375 52.375 863.625 52.375C866.25 52.375 860.875 42.5 864.375 44.875C867.875 47.25 871.75 46.375 868.25 42.75C867.125 41.625 865.625 39.625 863.875 37.875C863.25 37.25 863.75 34 863.125 33.5C862.375 32.875 860.5 34.875 859.75 34.5C858.25 33.75 858.75 35.125 856.5 35.5C855 36 856.25 32.625 854.75 33.625Z" fill="#89664C"/>
<path d="M840.375 41C845.25 36.375 854.125 39 859.375 41.25C864.5 43.5 867.625 36.375 864.375 32.75C862.5 30.625 859.5 33.125 858.375 34.625C857.125 36.125 856.125 37.75 854.75 39.25C852.75 41.5 847.875 39.625 849.375 36.5C851 33.25 857.875 37 860.125 37.625C864.5 38.875 869.125 39.375 873.5 37.75C875 37.25 874.375 34.75 872.875 35.375C868 37.125 863.125 36 858.5 34.5C856.125 33.75 852.375 31.75 849.875 32.875C842.75 36.25 849.375 45.875 855.375 42.125C856.75 41.25 857.625 39.875 858.625 38.625C859.25 37.875 862.375 33.125 863.125 35.5C863.5 36.75 863.125 39 861.75 39.375C860.875 39.75 859.125 38.5 858.25 38.25C856.625 37.625 855 37.125 853.25 36.75C848.625 35.75 842.375 36 838.75 39.375C837.5 40.375 839.25 42.125 840.375 41Z" fill="#E8E8E8"/>
<path d="M873 17.625C871.75 18.625 869.5 20.75 865.75 20.75C863.25 20.75 858.625 17 857 17C854.625 17 849.375 20.75 848.25 20.75C844.125 20.75 841.875 18.625 840.75 17.75C840.75 17.75 842.125 23.375 846.375 26.25C849.5 28.25 849.125 25.875 850.75 23.625C852.375 21.375 853.5 20.25 856.375 25.875C857.875 29 860.75 17.375 863 21.125C867.125 28 868.625 24.25 873 17.625Z" fill="#89664C"/>
<path d="M882.5 82.5L882.375 86.25L886.75 85L886.875 81C886.875 81.125 884.25 82.125 882.5 82.5ZM879.25 90V93.625L884.125 92.125V88.375C884 88.25 882.75 89 879.25 90ZM831.625 91L832 94.5L827.625 93.5L827.375 89.875C827.25 89.875 829 90.5 831.625 91Z" fill="#DBB471"/>
</g>
<path d="M920.491 69H917.537L926.082 45.7273H928.991L937.537 69H934.582L927.628 49.4091H927.446L920.491 69ZM921.582 59.9091H933.491V62.4091H921.582V59.9091ZM943.48 58.5V69H940.798V51.5455H943.389V54.2727H943.616C944.026 53.3864 944.647 52.6742 945.48 52.1364C946.313 51.5909 947.389 51.3182 948.707 51.3182C949.889 51.3182 950.923 51.5606 951.81 52.0455C952.696 52.5227 953.385 53.25 953.878 54.2273C954.37 55.197 954.616 56.4242 954.616 57.9091V69H951.935V58.0909C951.935 56.7197 951.579 55.6515 950.866 54.8864C950.154 54.1136 949.177 53.7273 947.935 53.7273C947.079 53.7273 946.313 53.9129 945.639 54.2841C944.973 54.6553 944.446 55.197 944.06 55.9091C943.673 56.6212 943.48 57.4848 943.48 58.5ZM964.653 69.4091C963.547 69.4091 962.544 69.2008 961.642 68.7841C960.741 68.3598 960.025 67.75 959.494 66.9545C958.964 66.1515 958.699 65.1818 958.699 64.0455C958.699 63.0455 958.896 62.2348 959.29 61.6136C959.684 60.9848 960.21 60.4924 960.869 60.1364C961.528 59.7803 962.256 59.5152 963.051 59.3409C963.854 59.1591 964.661 59.0152 965.472 58.9091C966.532 58.7727 967.392 58.6705 968.051 58.6023C968.718 58.5265 969.203 58.4015 969.506 58.2273C969.816 58.053 969.972 57.75 969.972 57.3182V57.2273C969.972 56.1061 969.665 55.2348 969.051 54.6136C968.445 53.9924 967.525 53.6818 966.29 53.6818C965.009 53.6818 964.006 53.9621 963.278 54.5227C962.551 55.0833 962.04 55.6818 961.744 56.3182L959.199 55.4091C959.653 54.3485 960.259 53.5227 961.017 52.9318C961.782 52.3333 962.616 51.9167 963.517 51.6818C964.426 51.4394 965.32 51.3182 966.199 51.3182C966.759 51.3182 967.403 51.3864 968.131 51.5227C968.866 51.6515 969.574 51.9205 970.256 52.3295C970.945 52.7386 971.517 53.3561 971.972 54.1818C972.426 55.0076 972.653 56.1136 972.653 57.5V69H969.972V66.6364H969.835C969.653 67.0152 969.35 67.4205 968.926 67.8523C968.502 68.2841 967.938 68.6515 967.233 68.9545C966.528 69.2576 965.669 69.4091 964.653 69.4091ZM965.062 67C966.123 67 967.017 66.7917 967.744 66.375C968.479 65.9583 969.032 65.4205 969.403 64.7614C969.782 64.1023 969.972 63.4091 969.972 62.6818V60.2273C969.858 60.3636 969.608 60.4886 969.222 60.6023C968.843 60.7083 968.403 60.803 967.903 60.8864C967.411 60.9621 966.93 61.0303 966.46 61.0909C965.998 61.1439 965.623 61.1894 965.335 61.2273C964.638 61.3182 963.987 61.4659 963.381 61.6705C962.782 61.8674 962.297 62.1667 961.926 62.5682C961.563 62.9621 961.381 63.5 961.381 64.1818C961.381 65.1136 961.725 65.8182 962.415 66.2955C963.112 66.7652 963.994 67 965.062 67ZM965.153 49.1818L967.926 43.9091H971.062L967.517 49.1818H965.153ZM980.23 45.7273V69H977.548V45.7273H980.23ZM985.142 69V51.5455H987.824V69H985.142ZM986.506 48.6364C985.983 48.6364 985.532 48.4583 985.153 48.1023C984.782 47.7462 984.597 47.3182 984.597 46.8182C984.597 46.3182 984.782 45.8902 985.153 45.5341C985.532 45.178 985.983 45 986.506 45C987.028 45 987.475 45.178 987.847 45.5341C988.225 45.8902 988.415 46.3182 988.415 46.8182C988.415 47.3182 988.225 47.7462 987.847 48.1023C987.475 48.4583 987.028 48.6364 986.506 48.6364ZM1005.1 55.4545L1002.69 56.1364C1002.54 55.7348 1002.32 55.3447 1002.02 54.9659C1001.73 54.5795 1001.34 54.2614 1000.84 54.0114C1000.34 53.7614 999.698 53.6364 998.918 53.6364C997.849 53.6364 996.959 53.8826 996.247 54.375C995.543 54.8598 995.19 55.4773 995.19 56.2273C995.19 56.8939 995.433 57.4205 995.918 57.8068C996.402 58.1932 997.16 58.5152 998.19 58.7727L1000.78 59.4091C1002.34 59.7879 1003.5 60.3674 1004.27 61.1477C1005.04 61.9205 1005.42 62.9167 1005.42 64.1364C1005.42 65.1364 1005.13 66.0303 1004.55 66.8182C1003.99 67.6061 1003.19 68.2273 1002.17 68.6818C1001.14 69.1364 999.955 69.3636 998.599 69.3636C996.819 69.3636 995.346 68.9773 994.179 68.2045C993.012 67.4318 992.274 66.303 991.963 64.8182L994.509 64.1818C994.751 65.1212 995.209 65.8258 995.884 66.2955C996.565 66.7652 997.455 67 998.554 67C999.804 67 1000.8 66.7348 1001.53 66.2045C1002.27 65.6667 1002.64 65.0227 1002.64 64.2727C1002.64 63.6667 1002.43 63.1591 1002.01 62.75C1001.58 62.3333 1000.93 62.0227 1000.05 61.8182L997.145 61.1364C995.546 60.7576 994.372 60.1705 993.622 59.375C992.88 58.572 992.509 57.5682 992.509 56.3636C992.509 55.3788 992.785 54.5076 993.338 53.75C993.899 52.9924 994.66 52.3977 995.622 51.9659C996.592 51.5341 997.69 51.3182 998.918 51.3182C1000.64 51.3182 1002 51.697 1002.99 52.4545C1003.98 53.2121 1004.68 54.2121 1005.1 55.4545ZM1016.77 69.3636C1015.09 69.3636 1013.64 68.9924 1012.42 68.25C1011.21 67.5 1010.27 66.4545 1009.61 65.1136C1008.96 63.7652 1008.64 62.197 1008.64 60.4091C1008.64 58.6212 1008.96 57.0455 1009.61 55.6818C1010.27 54.3106 1011.19 53.2424 1012.36 52.4773C1013.55 51.7045 1014.92 51.3182 1016.5 51.3182C1017.41 51.3182 1018.31 51.4697 1019.19 51.7727C1020.08 52.0758 1020.89 52.5682 1021.61 53.25C1022.34 53.9242 1022.92 54.8182 1023.35 55.9318C1023.78 57.0455 1024 58.4167 1024 60.0455V61.1818H1010.55V58.8636H1021.27C1021.27 57.8788 1021.08 57 1020.68 56.2273C1020.3 55.4545 1019.74 54.8447 1019.02 54.3977C1018.31 53.9508 1017.47 53.7273 1016.5 53.7273C1015.43 53.7273 1014.51 53.9924 1013.73 54.5227C1012.95 55.0455 1012.36 55.7273 1011.94 56.5682C1011.53 57.4091 1011.32 58.3106 1011.32 59.2727V60.8182C1011.32 62.1364 1011.55 63.2538 1012 64.1705C1012.46 65.0795 1013.1 65.7727 1013.92 66.25C1014.74 66.7197 1015.69 66.9545 1016.77 66.9545C1017.48 66.9545 1018.11 66.8561 1018.68 66.6591C1019.26 66.4545 1019.75 66.1515 1020.17 65.75C1020.59 65.3409 1020.91 64.8333 1021.14 64.2273L1023.73 64.9545C1023.45 65.8333 1023 66.6061 1022.35 67.2727C1021.71 67.9318 1020.91 68.447 1019.97 68.8182C1019.02 69.1818 1017.95 69.3636 1016.77 69.3636ZM1043.67 69.3636C1042.22 69.3636 1040.93 68.9962 1039.82 68.2614C1038.7 67.5189 1037.83 66.4735 1037.2 65.125C1036.58 63.7689 1036.26 62.1667 1036.26 60.3182C1036.26 58.4848 1036.58 56.8939 1037.2 55.5455C1037.83 54.197 1038.71 53.1553 1039.83 52.4205C1040.95 51.6856 1042.25 51.3182 1043.72 51.3182C1044.85 51.3182 1045.75 51.5076 1046.41 51.8864C1047.08 52.2576 1047.58 52.6818 1047.93 53.1591C1048.29 53.6288 1048.56 54.0152 1048.76 54.3182H1048.99V45.7273H1051.67V69H1049.08V66.3182H1048.76C1048.56 66.6364 1048.28 67.0379 1047.92 67.5227C1047.56 68 1047.04 68.428 1046.36 68.8068C1045.69 69.178 1044.79 69.3636 1043.67 69.3636ZM1044.03 66.9545C1045.11 66.9545 1046.02 66.6742 1046.76 66.1136C1047.5 65.5455 1048.07 64.7614 1048.45 63.7614C1048.84 62.7538 1049.03 61.5909 1049.03 60.2727C1049.03 58.9697 1048.84 57.8295 1048.47 56.8523C1048.09 55.8674 1047.53 55.1023 1046.78 54.5568C1046.04 54.0038 1045.13 53.7273 1044.03 53.7273C1042.9 53.7273 1041.95 54.0189 1041.19 54.6023C1040.44 55.178 1039.88 55.9621 1039.5 56.9545C1039.13 57.9394 1038.94 59.0455 1038.94 60.2727C1038.94 61.5152 1039.13 62.6439 1039.51 63.6591C1039.9 64.6667 1040.47 65.4697 1041.22 66.0682C1041.97 66.6591 1042.91 66.9545 1044.03 66.9545ZM1064.27 69.3636C1062.59 69.3636 1061.14 68.9924 1059.92 68.25C1058.71 67.5 1057.77 66.4545 1057.11 65.1136C1056.46 63.7652 1056.14 62.197 1056.14 60.4091C1056.14 58.6212 1056.46 57.0455 1057.11 55.6818C1057.77 54.3106 1058.69 53.2424 1059.86 52.4773C1061.05 51.7045 1062.42 51.3182 1064 51.3182C1064.91 51.3182 1065.81 51.4697 1066.69 51.7727C1067.58 52.0758 1068.39 52.5682 1069.11 53.25C1069.84 53.9242 1070.42 54.8182 1070.85 55.9318C1071.28 57.0455 1071.5 58.4167 1071.5 60.0455V61.1818H1058.05V58.8636H1068.77C1068.77 57.8788 1068.58 57 1068.18 56.2273C1067.8 55.4545 1067.24 54.8447 1066.52 54.3977C1065.81 53.9508 1064.97 53.7273 1064 53.7273C1062.93 53.7273 1062.01 53.9924 1061.23 54.5227C1060.45 55.0455 1059.86 55.7273 1059.44 56.5682C1059.03 57.4091 1058.82 58.3106 1058.82 59.2727V60.8182C1058.82 62.1364 1059.05 63.2538 1059.5 64.1705C1059.96 65.0795 1060.6 65.7727 1061.42 66.25C1062.24 66.7197 1063.19 66.9545 1064.27 66.9545C1064.98 66.9545 1065.61 66.8561 1066.18 66.6591C1066.76 66.4545 1067.25 66.1515 1067.67 65.75C1068.09 65.3409 1068.41 64.8333 1068.64 64.2273L1071.23 64.9545C1070.95 65.8333 1070.5 66.6061 1069.85 67.2727C1069.21 67.9318 1068.41 68.447 1067.47 68.8182C1066.52 69.1818 1065.45 69.3636 1064.27 69.3636ZM1088.35 45.7273L1093.98 63.4091H1094.19L1099.83 45.7273H1105.28L1097.26 69H1090.92L1082.89 45.7273H1088.35ZM1113.98 69.3409C1112.18 69.3409 1110.64 68.9773 1109.34 68.25C1108.06 67.5152 1107.06 66.4773 1106.37 65.1364C1105.67 63.7879 1105.32 62.1932 1105.32 60.3523C1105.32 58.5568 1105.67 56.9811 1106.37 55.625C1107.06 54.2689 1108.04 53.2121 1109.31 52.4545C1110.58 51.697 1112.07 51.3182 1113.79 51.3182C1114.94 51.3182 1116.01 51.5038 1117 51.875C1118 52.2386 1118.87 52.7879 1119.62 53.5227C1120.37 54.2576 1120.95 55.1818 1121.37 56.2955C1121.78 57.4015 1121.99 58.697 1121.99 60.1818V61.5114H1107.25V58.5114H1117.43C1117.43 57.8144 1117.28 57.197 1116.98 56.6591C1116.68 56.1212 1116.26 55.7008 1115.72 55.3977C1115.19 55.0871 1114.57 54.9318 1113.87 54.9318C1113.13 54.9318 1112.48 55.1023 1111.91 55.4432C1111.35 55.7765 1110.91 56.2273 1110.59 56.7955C1110.28 57.3561 1110.11 57.9811 1110.11 58.6705V61.5227C1110.11 62.3864 1110.26 63.1326 1110.58 63.7614C1110.91 64.3902 1111.37 64.875 1111.96 65.2159C1112.55 65.5568 1113.25 65.7273 1114.06 65.7273C1114.6 65.7273 1115.09 65.6515 1115.54 65.5C1115.98 65.3485 1116.37 65.1212 1116.68 64.8182C1117 64.5152 1117.25 64.1439 1117.41 63.7045L1121.89 64C1121.66 65.0758 1121.2 66.0152 1120.49 66.8182C1119.79 67.6136 1118.89 68.2348 1117.79 68.6818C1116.69 69.1212 1115.42 69.3409 1113.98 69.3409ZM1129.99 58.9091V69H1125.15V51.5455H1129.76V54.625H1129.97C1130.36 53.6098 1131 52.8068 1131.91 52.2159C1132.82 51.6174 1133.92 51.3182 1135.22 51.3182C1136.43 51.3182 1137.49 51.5833 1138.39 52.1136C1139.29 52.6439 1139.99 53.4015 1140.49 54.3864C1140.99 55.3636 1141.24 56.5303 1141.24 57.8864V69H1136.4V58.75C1136.41 57.6818 1136.14 56.8485 1135.58 56.25C1135.03 55.6439 1134.27 55.3409 1133.3 55.3409C1132.65 55.3409 1132.07 55.4811 1131.57 55.7614C1131.08 56.0417 1130.69 56.4508 1130.41 56.9886C1130.14 57.5189 1130 58.1591 1129.99 58.9091ZM1151.49 69.2841C1150.16 69.2841 1148.96 68.9432 1147.89 68.2614C1146.82 67.572 1145.97 66.5606 1145.34 65.2273C1144.72 63.8864 1144.41 62.2424 1144.41 60.2955C1144.41 58.2955 1144.73 56.6326 1145.38 55.3068C1146.02 53.9735 1146.88 52.9773 1147.94 52.3182C1149.02 51.6515 1150.2 51.3182 1151.48 51.3182C1152.45 51.3182 1153.27 51.4848 1153.92 51.8182C1154.58 52.1439 1155.11 52.553 1155.51 53.0455C1155.92 53.5303 1156.23 54.0076 1156.44 54.4773H1156.59V45.7273H1161.42V69H1156.65V66.2045H1156.44C1156.22 66.6894 1155.89 67.1705 1155.48 67.6477C1155.07 68.1174 1154.53 68.5076 1153.88 68.8182C1153.22 69.1288 1152.43 69.2841 1151.49 69.2841ZM1153.02 65.4318C1153.8 65.4318 1154.46 65.2197 1155 64.7955C1155.55 64.3636 1155.96 63.7614 1156.25 62.9886C1156.55 62.2159 1156.69 61.3106 1156.69 60.2727C1156.69 59.2348 1156.55 58.3333 1156.26 57.5682C1155.97 56.803 1155.56 56.2121 1155.01 55.7955C1154.47 55.3788 1153.8 55.1705 1153.02 55.1705C1152.23 55.1705 1151.56 55.3864 1151.01 55.8182C1150.47 56.25 1150.05 56.8485 1149.77 57.6136C1149.49 58.3788 1149.35 59.2652 1149.35 60.2727C1149.35 61.2879 1149.49 62.1856 1149.77 62.9659C1150.06 63.7386 1150.47 64.3447 1151.01 64.7841C1151.56 65.2159 1152.23 65.4318 1153.02 65.4318ZM1170.38 69.3295C1169.26 69.3295 1168.27 69.1364 1167.4 68.75C1166.53 68.3561 1165.84 67.7765 1165.33 67.0114C1164.83 66.2386 1164.58 65.2765 1164.58 64.125C1164.58 63.1553 1164.76 62.3409 1165.12 61.6818C1165.47 61.0227 1165.96 60.4924 1166.57 60.0909C1167.18 59.6894 1167.88 59.3864 1168.66 59.1818C1169.45 58.9773 1170.28 58.8333 1171.14 58.75C1172.15 58.6439 1172.97 58.5455 1173.59 58.4545C1174.21 58.3561 1174.67 58.2121 1174.95 58.0227C1175.23 57.8333 1175.37 57.553 1175.37 57.1818V57.1136C1175.37 56.3939 1175.14 55.8371 1174.68 55.4432C1174.24 55.0492 1173.6 54.8523 1172.78 54.8523C1171.9 54.8523 1171.21 55.0455 1170.7 55.4318C1170.18 55.8106 1169.84 56.2879 1169.67 56.8636L1165.2 56.5C1165.42 55.4394 1165.87 54.5227 1166.54 53.75C1167.2 52.9697 1168.06 52.3712 1169.12 51.9545C1170.18 51.5303 1171.4 51.3182 1172.8 51.3182C1173.77 51.3182 1174.7 51.4318 1175.58 51.6591C1176.48 51.8864 1177.27 52.2386 1177.96 52.7159C1178.65 53.1932 1179.2 53.8068 1179.61 54.5568C1180.01 55.2992 1180.21 56.1894 1180.21 57.2273V69H1175.62V66.5795H1175.48C1175.2 67.125 1174.82 67.6061 1174.36 68.0227C1173.89 68.4318 1173.32 68.7538 1172.66 68.9886C1172 69.2159 1171.24 69.3295 1170.38 69.3295ZM1171.76 65.9886C1172.48 65.9886 1173.11 65.8485 1173.65 65.5682C1174.2 65.2803 1174.62 64.8939 1174.93 64.4091C1175.25 63.9242 1175.4 63.375 1175.4 62.7614V60.9091C1175.25 61.0076 1175.04 61.0985 1174.78 61.1818C1174.52 61.2576 1174.23 61.3295 1173.9 61.3977C1173.57 61.4583 1173.25 61.5152 1172.92 61.5682C1172.6 61.6136 1172.3 61.6553 1172.04 61.6932C1171.47 61.7765 1170.97 61.9091 1170.55 62.0909C1170.12 62.2727 1169.79 62.5189 1169.56 62.8295C1169.32 63.1326 1169.21 63.5114 1169.21 63.9659C1169.21 64.625 1169.45 65.1288 1169.92 65.4773C1170.41 65.8182 1171.02 65.9886 1171.76 65.9886ZM1198.49 56.5227L1194.05 56.7955C1193.98 56.4167 1193.82 56.0758 1193.57 55.7727C1193.32 55.4621 1192.99 55.2159 1192.58 55.0341C1192.18 54.8447 1191.69 54.75 1191.13 54.75C1190.38 54.75 1189.75 54.9091 1189.24 55.2273C1188.72 55.5379 1188.46 55.9545 1188.46 56.4773C1188.46 56.8939 1188.63 57.2462 1188.96 57.5341C1189.3 57.822 1189.87 58.053 1190.68 58.2273L1193.84 58.8636C1195.54 59.2121 1196.8 59.7727 1197.63 60.5455C1198.47 61.3182 1198.88 62.3333 1198.88 63.5909C1198.88 64.7348 1198.55 65.7386 1197.87 66.6023C1197.21 67.4659 1196.29 68.1402 1195.12 68.625C1193.96 69.1023 1192.63 69.3409 1191.11 69.3409C1188.8 69.3409 1186.96 68.8598 1185.59 67.8977C1184.22 66.928 1183.43 65.6098 1183.19 63.9432L1187.95 63.6932C1188.1 64.3977 1188.44 64.9356 1189 65.3068C1189.55 65.6705 1190.26 65.8523 1191.12 65.8523C1191.97 65.8523 1192.65 65.6894 1193.17 65.3636C1193.69 65.0303 1193.96 64.6023 1193.96 64.0795C1193.96 63.6402 1193.77 63.2803 1193.41 63C1193.04 62.7121 1192.48 62.4924 1191.72 62.3409L1188.7 61.7386C1187 61.3977 1185.73 60.8068 1184.89 59.9659C1184.07 59.125 1183.66 58.053 1183.66 56.75C1183.66 55.6288 1183.96 54.6629 1184.57 53.8523C1185.18 53.0417 1186.04 52.4167 1187.14 51.9773C1188.26 51.5379 1189.56 51.3182 1191.05 51.3182C1193.26 51.3182 1194.99 51.7841 1196.26 52.7159C1197.53 53.6477 1198.27 54.9167 1198.49 56.5227Z" fill="white"/>
<path d="M122.546 163V152.818H126.364C127.147 152.818 127.803 152.954 128.333 153.226C128.867 153.498 129.27 153.879 129.541 154.369C129.816 154.857 129.954 155.425 129.954 156.075C129.954 156.728 129.815 157.294 129.536 157.775C129.261 158.252 128.855 158.622 128.318 158.884C127.781 159.142 127.122 159.271 126.34 159.271H123.62V157.74H126.091C126.548 157.74 126.923 157.677 127.215 157.551C127.506 157.422 127.722 157.235 127.861 156.989C128.003 156.741 128.075 156.436 128.075 156.075C128.075 155.713 128.003 155.405 127.861 155.15C127.718 154.891 127.501 154.696 127.21 154.563C126.918 154.427 126.542 154.359 126.081 154.359H124.391V163H122.546ZM127.806 158.386L130.327 163H128.269L125.793 158.386H127.806ZM134.843 163.149C134.078 163.149 133.417 162.99 132.86 162.672C132.306 162.35 131.88 161.896 131.582 161.31C131.284 160.72 131.135 160.025 131.135 159.227C131.135 158.441 131.284 157.752 131.582 157.158C131.884 156.562 132.305 156.098 132.845 155.766C133.385 155.432 134.02 155.264 134.749 155.264C135.22 155.264 135.664 155.34 136.081 155.493C136.502 155.642 136.874 155.874 137.195 156.189C137.52 156.504 137.775 156.905 137.961 157.392C138.146 157.876 138.239 158.453 138.239 159.122V159.674H131.98V158.461H136.514C136.511 158.116 136.436 157.81 136.29 157.541C136.144 157.269 135.941 157.056 135.679 156.9C135.42 156.744 135.119 156.666 134.774 156.666C134.406 156.666 134.083 156.756 133.804 156.935C133.526 157.11 133.309 157.342 133.153 157.631C133.001 157.916 132.923 158.229 132.919 158.57V159.629C132.919 160.073 133.001 160.455 133.163 160.773C133.325 161.088 133.553 161.33 133.844 161.499C134.136 161.664 134.477 161.747 134.868 161.747C135.13 161.747 135.367 161.711 135.579 161.638C135.791 161.562 135.975 161.451 136.131 161.305C136.287 161.159 136.405 160.978 136.484 160.763L138.165 160.952C138.058 161.396 137.856 161.784 137.558 162.115C137.263 162.443 136.885 162.698 136.424 162.881C135.964 163.06 135.437 163.149 134.843 163.149ZM143.093 163.149C142.33 163.149 141.676 162.982 141.129 162.647C140.585 162.312 140.166 161.85 139.871 161.26C139.579 160.667 139.434 159.984 139.434 159.212C139.434 158.436 139.583 157.752 139.881 157.158C140.179 156.562 140.6 156.098 141.144 155.766C141.691 155.432 142.337 155.264 143.083 155.264C143.702 155.264 144.251 155.379 144.728 155.607C145.209 155.833 145.592 156.152 145.877 156.567C146.162 156.978 146.324 157.458 146.364 158.009H144.644C144.574 157.641 144.408 157.334 144.147 157.089C143.888 156.84 143.542 156.716 143.108 156.716C142.74 156.716 142.416 156.815 142.138 157.014C141.86 157.21 141.643 157.491 141.487 157.859C141.334 158.227 141.258 158.668 141.258 159.182C141.258 159.702 141.334 160.15 141.487 160.524C141.639 160.895 141.853 161.182 142.128 161.384C142.407 161.583 142.733 161.683 143.108 161.683C143.373 161.683 143.61 161.633 143.818 161.533C144.031 161.431 144.208 161.283 144.35 161.091C144.493 160.899 144.591 160.665 144.644 160.39H146.364C146.321 160.93 146.162 161.409 145.887 161.827C145.612 162.241 145.237 162.566 144.763 162.801C144.289 163.033 143.732 163.149 143.093 163.149ZM151.222 163.149C150.457 163.149 149.796 162.99 149.239 162.672C148.685 162.35 148.259 161.896 147.961 161.31C147.663 160.72 147.514 160.025 147.514 159.227C147.514 158.441 147.663 157.752 147.961 157.158C148.263 156.562 148.684 156.098 149.224 155.766C149.764 155.432 150.399 155.264 151.128 155.264C151.599 155.264 152.043 155.34 152.46 155.493C152.881 155.642 153.252 155.874 153.574 156.189C153.899 156.504 154.154 156.905 154.34 157.392C154.525 157.876 154.618 158.453 154.618 159.122V159.674H148.359V158.461H152.893C152.89 158.116 152.815 157.81 152.669 157.541C152.523 157.269 152.319 157.056 152.058 156.9C151.799 156.744 151.497 156.666 151.153 156.666C150.785 156.666 150.462 156.756 150.183 156.935C149.905 157.11 149.688 157.342 149.532 157.631C149.38 157.916 149.302 158.229 149.298 158.57V159.629C149.298 160.073 149.38 160.455 149.542 160.773C149.704 161.088 149.931 161.33 150.223 161.499C150.515 161.664 150.856 161.747 151.247 161.747C151.509 161.747 151.746 161.711 151.958 161.638C152.17 161.562 152.354 161.451 152.51 161.305C152.666 161.159 152.783 160.978 152.863 160.763L154.543 160.952C154.437 161.396 154.235 161.784 153.937 162.115C153.642 162.443 153.264 162.698 152.803 162.881C152.343 163.06 151.816 163.149 151.222 163.149ZM156.141 163V155.364H157.94V163H156.141ZM157.045 154.28C156.76 154.28 156.515 154.185 156.31 153.996C156.104 153.804 156.001 153.574 156.001 153.305C156.001 153.034 156.104 152.803 156.31 152.614C156.515 152.422 156.76 152.326 157.045 152.326C157.334 152.326 157.579 152.422 157.781 152.614C157.987 152.803 158.089 153.034 158.089 153.305C158.089 153.574 157.987 153.804 157.781 153.996C157.579 154.185 157.334 154.28 157.045 154.28ZM163.604 155.364V156.756H159.214V155.364H163.604ZM160.298 153.534H162.098V160.703C162.098 160.945 162.134 161.131 162.207 161.26C162.283 161.386 162.383 161.472 162.505 161.518C162.628 161.565 162.764 161.588 162.913 161.588C163.026 161.588 163.129 161.58 163.221 161.563C163.317 161.547 163.39 161.532 163.44 161.518L163.743 162.925C163.647 162.959 163.51 162.995 163.331 163.035C163.155 163.075 162.94 163.098 162.684 163.104C162.234 163.118 161.828 163.05 161.466 162.901C161.105 162.748 160.818 162.513 160.606 162.195C160.397 161.876 160.295 161.479 160.298 161.001V153.534ZM167.307 163.154C166.823 163.154 166.387 163.068 165.999 162.896C165.615 162.72 165.31 162.461 165.084 162.12C164.862 161.779 164.751 161.358 164.751 160.857C164.751 160.426 164.831 160.07 164.99 159.788C165.149 159.507 165.366 159.281 165.641 159.112C165.916 158.943 166.226 158.816 166.571 158.729C166.919 158.64 167.279 158.575 167.65 158.536C168.097 158.489 168.46 158.448 168.739 158.411C169.017 158.371 169.219 158.312 169.345 158.232C169.474 158.149 169.539 158.022 169.539 157.849V157.82C169.539 157.445 169.428 157.155 169.206 156.95C168.984 156.744 168.664 156.641 168.246 156.641C167.806 156.641 167.456 156.737 167.197 156.93C166.942 157.122 166.77 157.349 166.68 157.611L165 157.372C165.132 156.908 165.351 156.52 165.656 156.209C165.961 155.894 166.334 155.659 166.775 155.503C167.216 155.344 167.703 155.264 168.236 155.264C168.604 155.264 168.971 155.307 169.335 155.393C169.7 155.48 170.033 155.622 170.334 155.821C170.636 156.017 170.878 156.283 171.06 156.621C171.246 156.96 171.339 157.382 171.339 157.889V163H169.609V161.951H169.549C169.44 162.163 169.285 162.362 169.087 162.548C168.891 162.73 168.644 162.877 168.346 162.99C168.051 163.099 167.704 163.154 167.307 163.154ZM167.774 161.832C168.135 161.832 168.449 161.76 168.714 161.618C168.979 161.472 169.183 161.28 169.325 161.041C169.471 160.803 169.544 160.542 169.544 160.261V159.361C169.488 159.407 169.391 159.45 169.256 159.49C169.123 159.53 168.974 159.565 168.808 159.594C168.642 159.624 168.478 159.651 168.316 159.674C168.154 159.697 168.013 159.717 167.893 159.734C167.625 159.77 167.385 159.83 167.172 159.913C166.96 159.996 166.793 160.112 166.67 160.261C166.548 160.406 166.486 160.595 166.486 160.827C166.486 161.159 166.607 161.409 166.849 161.578C167.091 161.747 167.4 161.832 167.774 161.832ZM180.434 155.364V156.756H176.044V155.364H180.434ZM177.128 153.534H178.928V160.703C178.928 160.945 178.964 161.131 179.037 161.26C179.113 161.386 179.213 161.472 179.335 161.518C179.458 161.565 179.594 161.588 179.743 161.588C179.856 161.588 179.959 161.58 180.051 161.563C180.148 161.547 180.22 161.532 180.27 161.518L180.573 162.925C180.477 162.959 180.34 162.995 180.161 163.035C179.985 163.075 179.77 163.098 179.514 163.104C179.064 163.118 178.658 163.05 178.296 162.901C177.935 162.748 177.648 162.513 177.436 162.195C177.228 161.876 177.125 161.479 177.128 161.001V153.534ZM185.188 163.149C184.443 163.149 183.796 162.985 183.249 162.657C182.703 162.329 182.278 161.87 181.977 161.28C181.678 160.69 181.529 160 181.529 159.212C181.529 158.423 181.678 157.732 181.977 157.138C182.278 156.545 182.703 156.085 183.249 155.756C183.796 155.428 184.443 155.264 185.188 155.264C185.934 155.264 186.58 155.428 187.127 155.756C187.674 156.085 188.097 156.545 188.395 157.138C188.697 157.732 188.847 158.423 188.847 159.212C188.847 160 188.697 160.69 188.395 161.28C188.097 161.87 187.674 162.329 187.127 162.657C186.58 162.985 185.934 163.149 185.188 163.149ZM185.198 161.707C185.603 161.707 185.941 161.596 186.212 161.374C186.484 161.149 186.686 160.847 186.819 160.469C186.955 160.092 187.023 159.671 187.023 159.207C187.023 158.739 186.955 158.317 186.819 157.939C186.686 157.558 186.484 157.254 186.212 157.029C185.941 156.804 185.603 156.691 185.198 156.691C184.784 156.691 184.439 156.804 184.164 157.029C183.892 157.254 183.689 157.558 183.553 157.939C183.42 158.317 183.354 158.739 183.354 159.207C183.354 159.671 183.42 160.092 183.553 160.469C183.689 160.847 183.892 161.149 184.164 161.374C184.439 161.596 184.784 161.707 185.198 161.707ZM194.188 155.364V156.756H189.798V155.364H194.188ZM190.882 153.534H192.682V160.703C192.682 160.945 192.718 161.131 192.791 161.26C192.867 161.386 192.967 161.472 193.089 161.518C193.212 161.565 193.348 161.588 193.497 161.588C193.61 161.588 193.713 161.58 193.805 161.563C193.901 161.547 193.974 161.532 194.024 161.518L194.327 162.925C194.231 162.959 194.094 162.995 193.915 163.035C193.739 163.075 193.524 163.098 193.268 163.104C192.818 163.118 192.412 163.05 192.05 162.901C191.689 162.748 191.402 162.513 191.19 162.195C190.981 161.876 190.879 161.479 190.882 161.001V153.534ZM197.891 163.154C197.407 163.154 196.971 163.068 196.583 162.896C196.199 162.72 195.894 162.461 195.668 162.12C195.446 161.779 195.335 161.358 195.335 160.857C195.335 160.426 195.415 160.07 195.574 159.788C195.733 159.507 195.95 159.281 196.225 159.112C196.5 158.943 196.81 158.816 197.155 158.729C197.503 158.64 197.863 158.575 198.234 158.536C198.681 158.489 199.044 158.448 199.323 158.411C199.601 158.371 199.803 158.312 199.929 158.232C200.058 158.149 200.123 158.022 200.123 157.849V157.82C200.123 157.445 200.012 157.155 199.79 156.95C199.568 156.744 199.248 156.641 198.83 156.641C198.39 156.641 198.04 156.737 197.781 156.93C197.526 157.122 197.354 157.349 197.264 157.611L195.584 157.372C195.716 156.908 195.935 156.52 196.24 156.209C196.545 155.894 196.918 155.659 197.359 155.503C197.8 155.344 198.287 155.264 198.82 155.264C199.188 155.264 199.555 155.307 199.919 155.393C200.284 155.48 200.617 155.622 200.918 155.821C201.22 156.017 201.462 156.283 201.644 156.621C201.83 156.96 201.923 157.382 201.923 157.889V163H200.193V161.951H200.133C200.024 162.163 199.869 162.362 199.671 162.548C199.475 162.73 199.228 162.877 198.93 162.99C198.635 163.099 198.288 163.154 197.891 163.154ZM198.358 161.832C198.719 161.832 199.033 161.76 199.298 161.618C199.563 161.472 199.767 161.28 199.909 161.041C200.055 160.803 200.128 160.542 200.128 160.261V159.361C200.072 159.407 199.975 159.45 199.84 159.49C199.707 159.53 199.558 159.565 199.392 159.594C199.226 159.624 199.062 159.651 198.9 159.674C198.738 159.697 198.597 159.717 198.477 159.734C198.209 159.77 197.969 159.83 197.756 159.913C197.544 159.996 197.377 160.112 197.254 160.261C197.132 160.406 197.07 160.595 197.07 160.827C197.07 161.159 197.191 161.409 197.433 161.578C197.675 161.747 197.984 161.832 198.358 161.832ZM205.532 152.818V163H203.732V152.818H205.532Z" fill="white"/>
<path d="M360.427 154.364V152.818H368.551V154.364H365.403V163H363.574V154.364H360.427ZM372.261 163.149C371.515 163.149 370.869 162.985 370.322 162.657C369.775 162.329 369.351 161.87 369.049 161.28C368.751 160.69 368.601 160 368.601 159.212C368.601 158.423 368.751 157.732 369.049 157.138C369.351 156.545 369.775 156.085 370.322 155.756C370.869 155.428 371.515 155.264 372.261 155.264C373.006 155.264 373.653 155.428 374.199 155.756C374.746 156.085 375.169 156.545 375.467 157.138C375.769 157.732 375.92 158.423 375.92 159.212C375.92 160 375.769 160.69 375.467 161.28C375.169 161.87 374.746 162.329 374.199 162.657C373.653 162.985 373.006 163.149 372.261 163.149ZM372.271 161.707C372.675 161.707 373.013 161.596 373.285 161.374C373.556 161.149 373.759 160.847 373.891 160.469C374.027 160.092 374.095 159.671 374.095 159.207C374.095 158.739 374.027 158.317 373.891 157.939C373.759 157.558 373.556 157.254 373.285 157.029C373.013 156.804 372.675 156.691 372.271 156.691C371.856 156.691 371.512 156.804 371.236 157.029C370.965 157.254 370.761 157.558 370.625 157.939C370.492 158.317 370.426 158.739 370.426 159.207C370.426 159.671 370.492 160.092 370.625 160.469C370.761 160.847 370.965 161.149 371.236 161.374C371.512 161.596 371.856 161.707 372.271 161.707ZM381.26 155.364V156.756H376.87V155.364H381.26ZM377.954 153.534H379.754V160.703C379.754 160.945 379.79 161.131 379.863 161.26C379.94 161.386 380.039 161.472 380.162 161.518C380.284 161.565 380.42 161.588 380.569 161.588C380.682 161.588 380.785 161.58 380.878 161.563C380.974 161.547 381.047 161.532 381.096 161.518L381.4 162.925C381.303 162.959 381.166 162.995 380.987 163.035C380.811 163.075 380.596 163.098 380.341 163.104C379.89 163.118 379.484 163.05 379.123 162.901C378.761 162.748 378.475 162.513 378.263 162.195C378.054 161.876 377.951 161.479 377.954 161.001V153.534ZM384.963 163.154C384.479 163.154 384.043 163.068 383.655 162.896C383.271 162.72 382.966 162.461 382.741 162.12C382.519 161.779 382.408 161.358 382.408 160.857C382.408 160.426 382.487 160.07 382.646 159.788C382.805 159.507 383.022 159.281 383.297 159.112C383.573 158.943 383.882 158.816 384.227 158.729C384.575 158.64 384.935 158.575 385.306 158.536C385.753 158.489 386.116 158.448 386.395 158.411C386.673 158.371 386.875 158.312 387.001 158.232C387.131 158.149 387.195 158.022 387.195 157.849V157.82C387.195 157.445 387.084 157.155 386.862 156.95C386.64 156.744 386.32 156.641 385.903 156.641C385.462 156.641 385.112 156.737 384.854 156.93C384.598 157.122 384.426 157.349 384.337 157.611L382.656 157.372C382.789 156.908 383.007 156.52 383.312 156.209C383.617 155.894 383.99 155.659 384.431 155.503C384.872 155.344 385.359 155.264 385.893 155.264C386.261 155.264 386.627 155.307 386.991 155.393C387.356 155.48 387.689 155.622 387.991 155.821C388.292 156.017 388.534 156.283 388.717 156.621C388.902 156.96 388.995 157.382 388.995 157.889V163H387.265V161.951H387.205C387.096 162.163 386.942 162.362 386.743 162.548C386.547 162.73 386.3 162.877 386.002 162.99C385.707 163.099 385.361 163.154 384.963 163.154ZM385.43 161.832C385.792 161.832 386.105 161.76 386.37 161.618C386.635 161.472 386.839 161.28 386.981 161.041C387.127 160.803 387.2 160.542 387.2 160.261V159.361C387.144 159.407 387.048 159.45 386.912 159.49C386.779 159.53 386.63 159.565 386.464 159.594C386.299 159.624 386.135 159.651 385.972 159.674C385.81 159.697 385.669 159.717 385.55 159.734C385.281 159.77 385.041 159.83 384.829 159.913C384.617 159.996 384.449 160.112 384.327 160.261C384.204 160.406 384.143 160.595 384.143 160.827C384.143 161.159 384.264 161.409 384.506 161.578C384.748 161.747 385.056 161.832 385.43 161.832ZM392.604 152.818V163H390.805V152.818H392.604ZM400.761 163.134C400.162 163.134 399.625 162.98 399.151 162.672C398.677 162.364 398.302 161.916 398.027 161.33C397.752 160.743 397.614 160.03 397.614 159.192C397.614 158.343 397.754 157.627 398.032 157.044C398.314 156.457 398.693 156.015 399.171 155.717C399.648 155.415 400.18 155.264 400.766 155.264C401.214 155.264 401.582 155.34 401.87 155.493C402.158 155.642 402.387 155.823 402.556 156.035C402.725 156.244 402.856 156.441 402.949 156.626H403.024V152.818H404.828V163H403.058V161.797H402.949C402.856 161.982 402.722 162.18 402.546 162.388C402.371 162.594 402.139 162.77 401.85 162.915C401.562 163.061 401.199 163.134 400.761 163.134ZM401.264 161.658C401.645 161.658 401.97 161.555 402.238 161.349C402.506 161.141 402.71 160.851 402.85 160.479C402.989 160.108 403.058 159.676 403.058 159.182C403.058 158.688 402.989 158.259 402.85 157.894C402.714 157.53 402.511 157.246 402.243 157.044C401.978 156.842 401.651 156.741 401.264 156.741C400.863 156.741 400.528 156.845 400.259 157.054C399.991 157.263 399.789 157.551 399.653 157.919C399.517 158.287 399.449 158.708 399.449 159.182C399.449 159.659 399.517 160.085 399.653 160.46C399.792 160.831 399.996 161.124 400.264 161.339C400.536 161.552 400.869 161.658 401.264 161.658ZM410.127 163.149C409.361 163.149 408.7 162.99 408.143 162.672C407.59 162.35 407.164 161.896 406.865 161.31C406.567 160.72 406.418 160.025 406.418 159.227C406.418 158.441 406.567 157.752 406.865 157.158C407.167 156.562 407.588 156.098 408.128 155.766C408.668 155.432 409.303 155.264 410.032 155.264C410.503 155.264 410.947 155.34 411.365 155.493C411.786 155.642 412.157 155.874 412.478 156.189C412.803 156.504 413.058 156.905 413.244 157.392C413.429 157.876 413.522 158.453 413.522 159.122V159.674H407.263V158.461H411.797C411.794 158.116 411.719 157.81 411.573 157.541C411.428 157.269 411.224 157.056 410.962 156.9C410.703 156.744 410.402 156.666 410.057 156.666C409.689 156.666 409.366 156.756 409.088 156.935C408.809 157.11 408.592 157.342 408.436 157.631C408.284 157.916 408.206 158.229 408.203 158.57V159.629C408.203 160.073 408.284 160.455 408.446 160.773C408.609 161.088 408.836 161.33 409.127 161.499C409.419 161.664 409.76 161.747 410.152 161.747C410.413 161.747 410.65 161.711 410.862 161.638C411.075 161.562 411.259 161.451 411.414 161.305C411.57 161.159 411.688 160.978 411.767 160.763L413.448 160.952C413.342 161.396 413.139 161.784 412.841 162.115C412.546 162.443 412.168 162.698 411.708 162.881C411.247 163.06 410.72 163.149 410.127 163.149ZM418.517 165.864V155.364H420.287V156.626H420.392C420.485 156.441 420.616 156.244 420.785 156.035C420.954 155.823 421.182 155.642 421.471 155.493C421.759 155.34 422.127 155.264 422.574 155.264C423.164 155.264 423.696 155.415 424.17 155.717C424.647 156.015 425.025 156.457 425.304 157.044C425.585 157.627 425.726 158.343 425.726 159.192C425.726 160.03 425.589 160.743 425.314 161.33C425.039 161.916 424.664 162.364 424.19 162.672C423.716 162.98 423.179 163.134 422.579 163.134C422.142 163.134 421.779 163.061 421.491 162.915C421.202 162.77 420.97 162.594 420.794 162.388C420.622 162.18 420.488 161.982 420.392 161.797H420.317V165.864H418.517ZM420.282 159.182C420.282 159.676 420.352 160.108 420.491 160.479C420.634 160.851 420.838 161.141 421.103 161.349C421.371 161.555 421.696 161.658 422.077 161.658C422.475 161.658 422.808 161.552 423.076 161.339C423.345 161.124 423.547 160.831 423.683 160.46C423.822 160.085 423.892 159.659 423.892 159.182C423.892 158.708 423.824 158.287 423.688 157.919C423.552 157.551 423.35 157.263 423.081 157.054C422.813 156.845 422.478 156.741 422.077 156.741C421.693 156.741 421.366 156.842 421.098 157.044C420.829 157.246 420.625 157.53 420.486 157.894C420.35 158.259 420.282 158.688 420.282 159.182ZM430.648 163.149C429.883 163.149 429.221 162.99 428.665 162.672C428.111 162.35 427.685 161.896 427.387 161.31C427.089 160.72 426.939 160.025 426.939 159.227C426.939 158.441 427.089 157.752 427.387 157.158C427.688 156.562 428.109 156.098 428.65 155.766C429.19 155.432 429.825 155.264 430.554 155.264C431.024 155.264 431.468 155.34 431.886 155.493C432.307 155.642 432.678 155.874 433 156.189C433.325 156.504 433.58 156.905 433.765 157.392C433.951 157.876 434.044 158.453 434.044 159.122V159.674H427.785V158.461H432.319C432.315 158.116 432.241 157.81 432.095 157.541C431.949 157.269 431.745 157.056 431.483 156.9C431.225 156.744 430.923 156.666 430.579 156.666C430.211 156.666 429.888 156.756 429.609 156.935C429.331 157.11 429.114 157.342 428.958 157.631C428.805 157.916 428.727 158.229 428.724 158.57V159.629C428.724 160.073 428.805 160.455 428.968 160.773C429.13 161.088 429.357 161.33 429.649 161.499C429.941 161.664 430.282 161.747 430.673 161.747C430.935 161.747 431.172 161.711 431.384 161.638C431.596 161.562 431.78 161.451 431.936 161.305C432.092 161.159 432.209 160.978 432.289 160.763L433.969 160.952C433.863 161.396 433.661 161.784 433.363 162.115C433.068 162.443 432.69 162.698 432.229 162.881C431.768 163.06 431.241 163.149 430.648 163.149ZM438.4 163.134C437.8 163.134 437.263 162.98 436.789 162.672C436.315 162.364 435.941 161.916 435.666 161.33C435.391 160.743 435.253 160.03 435.253 159.192C435.253 158.343 435.392 157.627 435.671 157.044C435.952 156.457 436.332 156.015 436.809 155.717C437.286 155.415 437.818 155.264 438.405 155.264C438.853 155.264 439.22 155.34 439.509 155.493C439.797 155.642 440.026 155.823 440.195 156.035C440.364 156.244 440.495 156.441 440.588 156.626H440.662V152.818H442.467V163H440.697V161.797H440.588C440.495 161.982 440.361 162.18 440.185 162.388C440.009 162.594 439.777 162.77 439.489 162.915C439.201 163.061 438.838 163.134 438.4 163.134ZM438.902 161.658C439.283 161.658 439.608 161.555 439.877 161.349C440.145 161.141 440.349 160.851 440.488 160.479C440.627 160.108 440.697 159.676 440.697 159.182C440.697 158.688 440.627 158.259 440.488 157.894C440.352 157.53 440.15 157.246 439.882 157.044C439.617 156.842 439.29 156.741 438.902 156.741C438.501 156.741 438.166 156.845 437.898 157.054C437.63 157.263 437.427 157.551 437.291 157.919C437.156 158.287 437.088 158.708 437.088 159.182C437.088 159.659 437.156 160.085 437.291 160.46C437.431 160.831 437.634 161.124 437.903 161.339C438.175 161.552 438.508 161.658 438.902 161.658ZM444.385 163V155.364H446.184V163H444.385ZM445.29 154.28C445.004 154.28 444.759 154.185 444.554 153.996C444.348 153.804 444.245 153.574 444.245 153.305C444.245 153.034 444.348 152.803 444.554 152.614C444.759 152.422 445.004 152.326 445.29 152.326C445.578 152.326 445.823 152.422 446.025 152.614C446.231 152.803 446.334 153.034 446.334 153.305C446.334 153.574 446.231 153.804 446.025 153.996C445.823 154.185 445.578 154.28 445.29 154.28ZM450.869 163.134C450.269 163.134 449.732 162.98 449.258 162.672C448.784 162.364 448.41 161.916 448.134 161.33C447.859 160.743 447.722 160.03 447.722 159.192C447.722 158.343 447.861 157.627 448.139 157.044C448.421 156.457 448.801 156.015 449.278 155.717C449.755 155.415 450.287 155.264 450.874 155.264C451.321 155.264 451.689 155.34 451.978 155.493C452.266 155.642 452.495 155.823 452.664 156.035C452.833 156.244 452.964 156.441 453.056 156.626H453.131V152.818H454.936V163H453.166V161.797H453.056C452.964 161.982 452.829 162.18 452.654 162.388C452.478 162.594 452.246 162.77 451.958 162.915C451.669 163.061 451.306 163.134 450.869 163.134ZM451.371 161.658C451.752 161.658 452.077 161.555 452.345 161.349C452.614 161.141 452.818 160.851 452.957 160.479C453.096 160.108 453.166 159.676 453.166 159.182C453.166 158.688 453.096 158.259 452.957 157.894C452.821 157.53 452.619 157.246 452.35 157.044C452.085 156.842 451.759 156.741 451.371 156.741C450.97 156.741 450.635 156.845 450.367 157.054C450.098 157.263 449.896 157.551 449.76 157.919C449.624 158.287 449.556 158.708 449.556 159.182C449.556 159.659 449.624 160.085 449.76 160.46C449.899 160.831 450.103 161.124 450.372 161.339C450.643 161.552 450.977 161.658 451.371 161.658ZM460.184 163.149C459.439 163.149 458.792 162.985 458.245 162.657C457.699 162.329 457.274 161.87 456.973 161.28C456.674 160.69 456.525 160 456.525 159.212C456.525 158.423 456.674 157.732 456.973 157.138C457.274 156.545 457.699 156.085 458.245 155.756C458.792 155.428 459.439 155.264 460.184 155.264C460.93 155.264 461.576 155.428 462.123 155.756C462.67 156.085 463.093 156.545 463.391 157.138C463.693 157.732 463.843 158.423 463.843 159.212C463.843 160 463.693 160.69 463.391 161.28C463.093 161.87 462.67 162.329 462.123 162.657C461.576 162.985 460.93 163.149 460.184 163.149ZM460.194 161.707C460.599 161.707 460.937 161.596 461.209 161.374C461.48 161.149 461.682 160.847 461.815 160.469C461.951 160.092 462.019 159.671 462.019 159.207C462.019 158.739 461.951 158.317 461.815 157.939C461.682 157.558 461.48 157.254 461.209 157.029C460.937 156.804 460.599 156.691 460.194 156.691C459.78 156.691 459.435 156.804 459.16 157.029C458.888 157.254 458.685 157.558 458.549 157.939C458.416 158.317 458.35 158.739 458.35 159.207C458.35 159.671 458.416 160.092 458.549 160.469C458.685 160.847 458.888 161.149 459.16 161.374C459.435 161.596 459.78 161.707 460.194 161.707ZM471.407 157.382L469.766 157.561C469.719 157.395 469.638 157.24 469.522 157.094C469.41 156.948 469.257 156.83 469.065 156.741C468.873 156.651 468.637 156.607 468.359 156.607C467.984 156.607 467.67 156.688 467.414 156.85C467.162 157.013 467.038 157.223 467.041 157.482C467.038 157.704 467.119 157.884 467.285 158.023C467.454 158.163 467.733 158.277 468.12 158.366L469.423 158.645C470.145 158.801 470.682 159.048 471.034 159.386C471.388 159.724 471.567 160.166 471.571 160.713C471.567 161.194 471.426 161.618 471.148 161.986C470.873 162.35 470.49 162.635 470 162.841C469.509 163.046 468.946 163.149 468.309 163.149C467.375 163.149 466.622 162.954 466.052 162.562C465.482 162.168 465.142 161.62 465.033 160.917L466.788 160.748C466.867 161.093 467.036 161.353 467.295 161.528C467.554 161.704 467.89 161.792 468.304 161.792C468.732 161.792 469.075 161.704 469.333 161.528C469.595 161.353 469.726 161.136 469.726 160.877C469.726 160.658 469.642 160.478 469.473 160.335C469.307 160.193 469.048 160.083 468.697 160.007L467.394 159.734C466.662 159.581 466.12 159.324 465.769 158.963C465.417 158.598 465.243 158.138 465.247 157.581C465.243 157.11 465.371 156.703 465.63 156.358C465.891 156.01 466.254 155.741 466.718 155.553C467.186 155.36 467.724 155.264 468.334 155.264C469.229 155.264 469.933 155.455 470.447 155.836C470.964 156.217 471.284 156.732 471.407 157.382Z" fill="white"/>
<path d="M621.254 152.818V163H619.41V152.818H621.254ZM626.985 155.364V156.756H622.595V155.364H626.985ZM623.679 153.534H625.479V160.703C625.479 160.945 625.515 161.131 625.588 161.26C625.664 161.386 625.764 161.472 625.886 161.518C626.009 161.565 626.145 161.588 626.294 161.588C626.407 161.588 626.509 161.58 626.602 161.563C626.698 161.547 626.771 161.532 626.821 161.518L627.124 162.925C627.028 162.959 626.891 162.995 626.712 163.035C626.536 163.075 626.32 163.098 626.065 163.104C625.614 163.118 625.208 163.05 624.847 162.901C624.486 162.748 624.199 162.513 623.987 162.195C623.778 161.876 623.676 161.479 623.679 161.001V153.534ZM631.789 163.149C631.023 163.149 630.362 162.99 629.805 162.672C629.252 162.35 628.826 161.896 628.527 161.31C628.229 160.72 628.08 160.025 628.08 159.227C628.08 158.441 628.229 157.752 628.527 157.158C628.829 156.562 629.25 156.098 629.79 155.766C630.33 155.432 630.965 155.264 631.694 155.264C632.165 155.264 632.609 155.34 633.027 155.493C633.448 155.642 633.819 155.874 634.14 156.189C634.465 156.504 634.72 156.905 634.906 157.392C635.092 157.876 635.184 158.453 635.184 159.122V159.674H628.925V158.461H633.459C633.456 158.116 633.381 157.81 633.236 157.541C633.09 157.269 632.886 157.056 632.624 156.9C632.366 156.744 632.064 156.666 631.719 156.666C631.351 156.666 631.028 156.756 630.75 156.935C630.471 157.11 630.254 157.342 630.098 157.631C629.946 157.916 629.868 158.229 629.865 158.57V159.629C629.865 160.073 629.946 160.455 630.108 160.773C630.271 161.088 630.498 161.33 630.79 161.499C631.081 161.664 631.423 161.747 631.814 161.747C632.075 161.747 632.312 161.711 632.525 161.638C632.737 161.562 632.921 161.451 633.076 161.305C633.232 161.159 633.35 160.978 633.429 160.763L635.11 160.952C635.004 161.396 634.802 161.784 634.503 162.115C634.208 162.443 633.83 162.698 633.37 162.881C632.909 163.06 632.382 163.149 631.789 163.149ZM638.507 158.526V163H636.707V155.364H638.427V156.661H638.517C638.692 156.234 638.972 155.894 639.357 155.642C639.745 155.39 640.224 155.264 640.794 155.264C641.321 155.264 641.78 155.377 642.171 155.602C642.565 155.828 642.87 156.154 643.085 156.582C643.304 157.009 643.412 157.528 643.409 158.138V163H641.609V158.416C641.609 157.906 641.476 157.506 641.211 157.218C640.949 156.93 640.586 156.786 640.122 156.786C639.808 156.786 639.527 156.855 639.282 156.994C639.04 157.13 638.85 157.327 638.71 157.586C638.575 157.844 638.507 158.158 638.507 158.526ZM651.274 157.382L649.633 157.561C649.587 157.395 649.505 157.24 649.389 157.094C649.277 156.948 649.124 156.83 648.932 156.741C648.74 156.651 648.505 156.607 648.226 156.607C647.852 156.607 647.537 156.688 647.282 156.85C647.03 157.013 646.905 157.223 646.909 157.482C646.905 157.704 646.987 157.884 647.152 158.023C647.321 158.163 647.6 158.277 647.987 158.366L649.29 158.645C650.013 158.801 650.55 159.048 650.901 159.386C651.255 159.724 651.434 160.166 651.438 160.713C651.434 161.194 651.294 161.618 651.015 161.986C650.74 162.35 650.357 162.635 649.867 162.841C649.376 163.046 648.813 163.149 648.176 163.149C647.242 163.149 646.489 162.954 645.919 162.562C645.349 162.168 645.009 161.62 644.9 160.917L646.655 160.748C646.735 161.093 646.904 161.353 647.162 161.528C647.421 161.704 647.757 161.792 648.171 161.792C648.599 161.792 648.942 161.704 649.201 161.528C649.462 161.353 649.593 161.136 649.593 160.877C649.593 160.658 649.509 160.478 649.34 160.335C649.174 160.193 648.916 160.083 648.564 160.007L647.262 159.734C646.529 159.581 645.987 159.324 645.636 158.963C645.285 158.598 645.111 158.138 645.114 157.581C645.111 157.11 645.238 156.703 645.497 156.358C645.759 156.01 646.121 155.741 646.585 155.553C647.053 155.36 647.591 155.264 648.201 155.264C649.096 155.264 649.8 155.455 650.314 155.836C650.831 156.217 651.151 156.732 651.274 157.382ZM663.215 155.364L660.496 163H658.507L655.788 155.364H657.707L659.462 161.036H659.541L661.301 155.364H663.215ZM667.582 163.149C666.816 163.149 666.155 162.99 665.598 162.672C665.045 162.35 664.619 161.896 664.32 161.31C664.022 160.72 663.873 160.025 663.873 159.227C663.873 158.441 664.022 157.752 664.32 157.158C664.622 156.562 665.043 156.098 665.583 155.766C666.123 155.432 666.758 155.264 667.487 155.264C667.958 155.264 668.402 155.34 668.82 155.493C669.241 155.642 669.612 155.874 669.933 156.189C670.258 156.504 670.513 156.905 670.699 157.392C670.885 157.876 670.977 158.453 670.977 159.122V159.674H664.718V158.461H669.252C669.249 158.116 669.174 157.81 669.028 157.541C668.883 157.269 668.679 157.056 668.417 156.9C668.158 156.744 667.857 156.666 667.512 156.666C667.144 156.666 666.821 156.756 666.543 156.935C666.264 157.11 666.047 157.342 665.891 157.631C665.739 157.916 665.661 158.229 665.658 158.57V159.629C665.658 160.073 665.739 160.455 665.901 160.773C666.064 161.088 666.291 161.33 666.582 161.499C666.874 161.664 667.216 161.747 667.607 161.747C667.868 161.747 668.105 161.711 668.318 161.638C668.53 161.562 668.714 161.451 668.869 161.305C669.025 161.159 669.143 160.978 669.222 160.763L670.903 160.952C670.797 161.396 670.595 161.784 670.296 162.115C670.001 162.443 669.623 162.698 669.163 162.881C668.702 163.06 668.175 163.149 667.582 163.149ZM674.3 158.526V163H672.5V155.364H674.22V156.661H674.31C674.485 156.234 674.765 155.894 675.15 155.642C675.538 155.39 676.016 155.264 676.587 155.264C677.114 155.264 677.573 155.377 677.964 155.602C678.358 155.828 678.663 156.154 678.878 156.582C679.097 157.009 679.205 157.528 679.202 158.138V163H677.402V158.416C677.402 157.906 677.269 157.506 677.004 157.218C676.742 156.93 676.379 156.786 675.915 156.786C675.601 156.786 675.32 156.855 675.075 156.994C674.833 157.13 674.643 157.327 674.503 157.586C674.368 157.844 674.3 158.158 674.3 158.526ZM683.865 163.134C683.265 163.134 682.728 162.98 682.254 162.672C681.78 162.364 681.406 161.916 681.131 161.33C680.855 160.743 680.718 160.03 680.718 159.192C680.718 158.343 680.857 157.627 681.136 157.044C681.417 156.457 681.797 156.015 682.274 155.717C682.751 155.415 683.283 155.264 683.87 155.264C684.317 155.264 684.685 155.34 684.974 155.493C685.262 155.642 685.491 155.823 685.66 156.035C685.829 156.244 685.96 156.441 686.052 156.626H686.127V152.818H687.932V163H686.162V161.797H686.052C685.96 161.982 685.825 162.18 685.65 162.388C685.474 162.594 685.242 162.77 684.954 162.915C684.665 163.061 684.302 163.134 683.865 163.134ZM684.367 161.658C684.748 161.658 685.073 161.555 685.342 161.349C685.61 161.141 685.814 160.851 685.953 160.479C686.092 160.108 686.162 159.676 686.162 159.182C686.162 158.688 686.092 158.259 685.953 157.894C685.817 157.53 685.615 157.246 685.347 157.044C685.081 156.842 684.755 156.741 684.367 156.741C683.966 156.741 683.631 156.845 683.363 157.054C683.094 157.263 682.892 157.551 682.756 157.919C682.62 158.287 682.552 158.708 682.552 159.182C682.552 159.659 682.62 160.085 682.756 160.46C682.896 160.831 683.099 161.124 683.368 161.339C683.64 161.552 683.973 161.658 684.367 161.658ZM689.85 163V155.364H691.649V163H689.85ZM690.754 154.28C690.469 154.28 690.224 154.185 690.019 153.996C689.813 153.804 689.71 153.574 689.71 153.305C689.71 153.034 689.813 152.803 690.019 152.614C690.224 152.422 690.469 152.326 690.754 152.326C691.043 152.326 691.288 152.422 691.49 152.614C691.696 152.803 691.798 153.034 691.798 153.305C691.798 153.574 691.696 153.804 691.49 153.996C691.288 154.185 691.043 154.28 690.754 154.28ZM696.334 163.134C695.734 163.134 695.197 162.98 694.723 162.672C694.249 162.364 693.874 161.916 693.599 161.33C693.324 160.743 693.187 160.03 693.187 159.192C693.187 158.343 693.326 157.627 693.604 157.044C693.886 156.457 694.266 156.015 694.743 155.717C695.22 155.415 695.752 155.264 696.339 155.264C696.786 155.264 697.154 155.34 697.442 155.493C697.731 155.642 697.959 155.823 698.128 156.035C698.297 156.244 698.428 156.441 698.521 156.626H698.596V152.818H700.4V163H698.631V161.797H698.521C698.428 161.982 698.294 162.18 698.119 162.388C697.943 162.594 697.711 162.77 697.422 162.915C697.134 163.061 696.771 163.134 696.334 163.134ZM696.836 161.658C697.217 161.658 697.542 161.555 697.81 161.349C698.079 161.141 698.283 160.851 698.422 160.479C698.561 160.108 698.631 159.676 698.631 159.182C698.631 158.688 698.561 158.259 698.422 157.894C698.286 157.53 698.084 157.246 697.815 157.044C697.55 156.842 697.224 156.741 696.836 156.741C696.435 156.741 696.1 156.845 695.832 157.054C695.563 157.263 695.361 157.551 695.225 157.919C695.089 158.287 695.021 158.708 695.021 159.182C695.021 159.659 695.089 160.085 695.225 160.46C695.364 160.831 695.568 161.124 695.837 161.339C696.108 161.552 696.441 161.658 696.836 161.658ZM705.649 163.149C704.903 163.149 704.257 162.985 703.71 162.657C703.163 162.329 702.739 161.87 702.438 161.28C702.139 160.69 701.99 160 701.99 159.212C701.99 158.423 702.139 157.732 702.438 157.138C702.739 156.545 703.163 156.085 703.71 155.756C704.257 155.428 704.903 155.264 705.649 155.264C706.395 155.264 707.041 155.428 707.588 155.756C708.135 156.085 708.558 156.545 708.856 157.138C709.158 157.732 709.308 158.423 709.308 159.212C709.308 160 709.158 160.69 708.856 161.28C708.558 161.87 708.135 162.329 707.588 162.657C707.041 162.985 706.395 163.149 705.649 163.149ZM705.659 161.707C706.064 161.707 706.402 161.596 706.673 161.374C706.945 161.149 707.147 160.847 707.28 160.469C707.416 160.092 707.484 159.671 707.484 159.207C707.484 158.739 707.416 158.317 707.28 157.939C707.147 157.558 706.945 157.254 706.673 157.029C706.402 156.804 706.064 156.691 705.659 156.691C705.245 156.691 704.9 156.804 704.625 157.029C704.353 157.254 704.149 157.558 704.014 157.939C703.881 158.317 703.815 158.739 703.815 159.207C703.815 159.671 703.881 160.092 704.014 160.469C704.149 160.847 704.353 161.149 704.625 161.374C704.9 161.596 705.245 161.707 705.659 161.707ZM716.871 157.382L715.231 157.561C715.184 157.395 715.103 157.24 714.987 157.094C714.874 156.948 714.722 156.83 714.53 156.741C714.338 156.651 714.102 156.607 713.824 156.607C713.449 156.607 713.134 156.688 712.879 156.85C712.627 157.013 712.503 157.223 712.506 157.482C712.503 157.704 712.584 157.884 712.75 158.023C712.919 158.163 713.197 158.277 713.585 158.366L714.888 158.645C715.61 158.801 716.147 159.048 716.498 159.386C716.853 159.724 717.032 160.166 717.035 160.713C717.032 161.194 716.891 161.618 716.613 161.986C716.338 162.35 715.955 162.635 715.464 162.841C714.974 163.046 714.41 163.149 713.774 163.149C712.839 163.149 712.087 162.954 711.517 162.562C710.947 162.168 710.607 161.62 710.498 160.917L712.253 160.748C712.332 161.093 712.501 161.353 712.76 161.528C713.018 161.704 713.355 161.792 713.769 161.792C714.197 161.792 714.54 161.704 714.798 161.528C715.06 161.353 715.191 161.136 715.191 160.877C715.191 160.658 715.106 160.478 714.937 160.335C714.772 160.193 714.513 160.083 714.162 160.007L712.859 159.734C712.127 159.581 711.585 159.324 711.234 158.963C710.882 158.598 710.708 158.138 710.712 157.581C710.708 157.11 710.836 156.703 711.094 156.358C711.356 156.01 711.719 155.741 712.183 155.553C712.65 155.36 713.189 155.264 713.799 155.264C714.694 155.264 715.398 155.455 715.912 155.836C716.429 156.217 716.749 156.732 716.871 157.382Z" fill="white"/>
<defs>
<filter id="filter0_d_1_2" x="26" y="115" width="1228.29" height="582.873" filterUnits="userSpaceOnUse" color-interpolation-filters="sRGB">
<feFlood flood-opacity="0" result="BackgroundImageFix"/>
<feColorMatrix in="SourceAlpha" type="matrix" values="0 0 0 0 0 0 0 0 0 0 0 0 0 0 0 0 0 0 127 0" result="hardAlpha"/>
<feOffset dy="4"/>
<feGaussianBlur stdDeviation="2"/>
<feComposite in2="hardAlpha" operator="out"/>
<feColorMatrix type="matrix" values="0 0 0 0 0 0 0 0 0 0 0 0 0 0 0 0 0 0 0.25 0"/>
<feBlend mode="normal" in2="BackgroundImageFix" result="effect1_dropShadow_1_2"/>
<feBlend mode="normal" in="SourceGraphic" in2="effect1_dropShadow_1_2" result="shape"/>
</filter>
<filter id="filter1_d_1_2" x="41" y="57" width="246" height="125" filterUnits="userSpaceOnUse" color-interpolation-filters="sRGB">
<feFlood flood-opacity="0" result="BackgroundImageFix"/>
<feColorMatrix in="SourceAlpha" type="matrix" values="0 0 0 0 0 0 0 0 0 0 0 0 0 0 0 0 0 0 127 0" result="hardAlpha"/>
<feOffset dy="4"/>
<feGaussianBlur stdDeviation="2"/>
<feComposite in2="hardAlpha" operator="out"/>
<feColorMatrix type="matrix" values="0 0 0 0 0 0 0 0 0 0 0 0 0 0 0 0 0 0 0.25 0"/>
<feBlend mode="normal" in2="BackgroundImageFix" result="effect1_dropShadow_1_2"/>
<feBlend mode="normal" in="SourceGraphic" in2="effect1_dropShadow_1_2" result="shape"/>
</filter>
<filter id="filter2_d_1_2" x="293" y="57" width="246" height="125" filterUnits="userSpaceOnUse" color-interpolation-filters="sRGB">
<feFlood flood-opacity="0" result="BackgroundImageFix"/>
<feColorMatrix in="SourceAlpha" type="matrix" values="0 0 0 0 0 0 0 0 0 0 0 0 0 0 0 0 0 0 127 0" result="hardAlpha"/>
<feOffset dy="4"/>
<feGaussianBlur stdDeviation="2"/>
<feComposite in2="hardAlpha" operator="out"/>
<feColorMatrix type="matrix" values="0 0 0 0 0 0 0 0 0 0 0 0 0 0 0 0 0 0 0.25 0"/>
<feBlend mode="normal" in2="BackgroundImageFix" result="effect1_dropShadow_1_2"/>
<feBlend mode="normal" in="SourceGraphic" in2="effect1_dropShadow_1_2" result="shape"/>
</filter>
<filter id="filter3_d_1_2" x="545" y="57" width="246" height="125" filterUnits="userSpaceOnUse" color-interpolation-filters="sRGB">
<feFlood flood-opacity="0" result="BackgroundImageFix"/>
<feColorMatrix in="SourceAlpha" type="matrix" values="0 0 0 0 0 0 0 0 0 0 0 0 0 0 0 0 0 0 127 0" result="hardAlpha"/>
<feOffset dy="4"/>
<feGaussianBlur stdDeviation="2"/>
<feComposite in2="hardAlpha" operator="out"/>
<feColorMatrix type="matrix" values="0 0 0 0 0 0 0 0 0 0 0 0 0 0 0 0 0 0 0.25 0"/>
<feBlend mode="normal" in2="BackgroundImageFix" result="effect1_dropShadow_1_2"/>
<feBlend mode="normal" in="SourceGraphic" in2="effect1_dropShadow_1_2" result="shape"/>
</filter>
<filter id="filter4_d_1_2" x="798" y="130" width="441" height="553" filterUnits="userSpaceOnUse" color-interpolation-filters="sRGB">
<feFlood flood-opacity="0" result="BackgroundImageFix"/>
<feColorMatrix in="SourceAlpha" type="matrix" values="0 0 0 0 0 0 0 0 0 0 0 0 0 0 0 0 0 0 127 0" result="hardAlpha"/>
<feOffset dy="4"/>
<feGaussianBlur stdDeviation="2"/>
<feComposite in2="hardAlpha" operator="out"/>
<feColorMatrix type="matrix" values="0 0 0 0 0 0 0 0 0 0 0 0 0 0 0 0 0 0 0.25 0"/>
<feBlend mode="normal" in2="BackgroundImageFix" result="effect1_dropShadow_1_2"/>
<feBlend mode="normal" in="SourceGraphic" in2="effect1_dropShadow_1_2" result="shape"/>
</filter>
<filter id="filter5_d_1_2" x="41" y="189" width="750" height="208" filterUnits="userSpaceOnUse" color-interpolation-filters="sRGB">
<feFlood flood-opacity="0" result="BackgroundImageFix"/>
<feColorMatrix in="SourceAlpha" type="matrix" values="0 0 0 0 0 0 0 0 0 0 0 0 0 0 0 0 0 0 127 0" result="hardAlpha"/>
<feOffset dy="4"/>
<feGaussianBlur stdDeviation="2"/>
<feComposite in2="hardAlpha" operator="out"/>
<feColorMatrix type="matrix" values="0 0 0 0 0 0 0 0 0 0 0 0 0 0 0 0 0 0 0.25 0"/>
<feBlend mode="normal" in2="BackgroundImageFix" result="effect1_dropShadow_1_2"/>
<feBlend mode="normal" in="SourceGraphic" in2="effect1_dropShadow_1_2" result="shape"/>
</filter>
<filter id="filter6_d_1_2" x="41" y="396" width="372" height="287" filterUnits="userSpaceOnUse" color-interpolation-filters="sRGB">
<feFlood flood-opacity="0" result="BackgroundImageFix"/>
<feColorMatrix in="SourceAlpha" type="matrix" values="0 0 0 0 0 0 0 0 0 0 0 0 0 0 0 0 0 0 127 0" result="hardAlpha"/>
<feOffset dy="4"/>
<feGaussianBlur stdDeviation="2"/>
<feComposite in2="hardAlpha" operator="out"/>
<feColorMatrix type="matrix" values="0 0 0 0 0 0 0 0 0 0 0 0 0 0 0 0 0 0 0.25 0"/>
<feBlend mode="normal" in2="BackgroundImageFix" result="effect1_dropShadow_1_2"/>
<feBlend mode="normal" in="SourceGraphic" in2="effect1_dropShadow_1_2" result="shape"/>
</filter>
<filter id="filter7_d_1_2" x="419" y="396" width="372" height="287" filterUnits="userSpaceOnUse" color-interpolation-filters="sRGB">
<feFlood flood-opacity="0" result="BackgroundImageFix"/>
<feColorMatrix in="SourceAlpha" type="matrix" values="0 0 0 0 0 0 0 0 0 0 0 0 0 0 0 0 0 0 127 0" result="hardAlpha"/>
<feOffset dy="4"/>
<feGaussianBlur stdDeviation="2"/>
<feComposite in2="hardAlpha" operator="out"/>
<feColorMatrix type="matrix" values="0 0 0 0 0 0 0 0 0 0 0 0 0 0 0 0 0 0 0.25 0"/>
<feBlend mode="normal" in2="BackgroundImageFix" result="effect1_dropShadow_1_2"/>
<feBlend mode="normal" in="SourceGraphic" in2="effect1_dropShadow_1_2" result="shape"/>
</filter>
<linearGradient id="paint0_linear_1_2" x1="0" y1="0" x2="1280" y2="720" gradientUnits="userSpaceOnUse">
<stop stop-color="#742373"/>
<stop offset="0.59" stop-color="#3C0939"/>
</linearGradient>
<linearGradient id="paint1_linear_1_2" x1="30" y1="402" x2="1283" y2="402" gradientUnits="userSpaceOnUse">
<stop stop-color="white"/>
<stop offset="1" stop-color="#FFE7FF"/>
</linearGradient>
<linearGradient id="paint2_linear_1_2" x1="45" y1="115.024" x2="283" y2="115.024" gradientUnits="userSpaceOnUse">
<stop stop-color="#9B68FF"/>
<stop offset="1" stop-color="#4122D8"/>
</linearGradient>
<linearGradient id="paint3_linear_1_2" x1="297" y1="115.024" x2="535" y2="115.024" gradientUnits="userSpaceOnUse">
<stop stop-color="#98D187"/>
<stop offset="1" stop-color="#437A37"/>
</linearGradient>
<linearGradient id="paint4_linear_1_2" x1="549" y1="115.024" x2="787" y2="115.024" gradientUnits="userSpaceOnUse">
<stop stop-color="#DD7FDC"/>
<stop offset="1" stop-color="#781B77"/>
</linearGradient>
<clipPath id="clip0_1_2">
<rect width="80" height="80" fill="white" transform="translate(817 17)"/>
</clipPath>
</defs>
</svg>
